<?xml version="1.0" encoding="utf-8"?>
<!-- Generator: Adobe Illustrator 21.0.0, SVG Export Plug-In . SVG Version: 6.00 Build 0)  -->
<svg version="1.1" id="Слой_1" xmlns="http://www.w3.org/2000/svg" xmlns:xlink="http://www.w3.org/1999/xlink" x="0px" y="0px"
	 viewBox="0 0 804.4 94.5" style="enable-background:new 0 0 804.4 94.5;" xml:space="preserve">
<style type="text/css">
	.st0{fill:#F4F414;}
</style>
<rect x="1.1" class="st0" width="803.3" height="94.5"/>
<rect x="48.4" y="47.3" width="47.3" height="47.3"/>
<rect x="95.6" width="47.3" height="47.3"/>
<rect x="142.9" y="47.3" width="47.3" height="47.3"/>
<rect x="190.2" width="47.3" height="47.3"/>
<rect x="237.4" y="47.3" width="47.3" height="47.3"/>
<rect x="284.7" width="47.3" height="47.3"/>
<rect x="330.6" y="47.3" width="47.3" height="47.3"/>
<rect x="377.8" width="47.3" height="47.3"/>
<rect x="425.7" y="47.3" width="47.3" height="47.3"/>
<rect x="473" width="47.3" height="47.3"/>
<rect x="520.2" y="47.3" width="47.3" height="47.3"/>
<rect x="567.5" width="47.3" height="47.3"/>
<rect x="614.8" y="47.3" width="47.3" height="47.3"/>
<rect x="662" width="47.3" height="47.3"/>
<rect x="709.9" y="47.3" width="47.3" height="47.3"/>
<rect x="757.1" width="47.3" height="47.3"/>
<rect x="1.1" width="47.3" height="47.3"/>
</svg>
