<?xml version="1.0" encoding="utf-8"?>
<!-- Generator: Adobe Illustrator 21.0.0, SVG Export Plug-In . SVG Version: 6.00 Build 0)  -->
<svg version="1.1" id="Слой_1" xmlns="http://www.w3.org/2000/svg" xmlns:xlink="http://www.w3.org/1999/xlink" x="0px" y="0px"
	 viewBox="0 0 841.9 495.3" style="enable-background:new 0 0 841.9 495.3;" xml:space="preserve">
<style type="text/css">
	.st0{fill:url(#SVGID_1_);}
	.st1{fill:#FFFFFF;}
	.st2{fill:url(#SVGID_2_);}
	.st3{fill:none;stroke:#000000;stroke-width:5;stroke-linecap:round;stroke-miterlimit:10;}
	.st4{fill:url(#SVGID_3_);}
	.st5{fill:url(#SVGID_4_);}
</style>
<g>
	<g>
		
			<linearGradient id="SVGID_1_" gradientUnits="userSpaceOnUse" x1="48.5" y1="371.83" x2="390.8014" y2="371.83" gradientTransform="matrix(1 0 0 -1 0 495.28)">
			<stop  offset="0" style="stop-color:#F4F414"/>
			<stop  offset="1" style="stop-color:#FFFFA7"/>
		</linearGradient>
		<path class="st0" d="M378.9,224.7H60.5c-6.6,0-12-5.4-12-12V34.2c0-6.6,5.4-12,12-12h318.3c6.6,0,12,5.4,12,12v178.5
			C390.9,219.3,385.5,224.7,378.9,224.7z"/>
		<g>
			<path d="M101,62.5c-0.4,0.3-0.8,0.6-1.3,0.8s-0.9,0.4-1.4,0.6c-0.5,0.2-1,0.3-1.4,0.4c-0.5,0.1-0.9,0.1-1.3,0.1
				c-1.4,0-2.5-0.2-3.4-0.7c-0.9-0.5-1.7-1.1-2.2-1.9c-0.6-0.8-1-1.7-1.2-2.8s-0.3-2.2-0.3-3.4c0-1.4,0.1-2.7,0.4-3.8
				c0.3-1.2,0.7-2.2,1.3-3.1s1.4-1.6,2.4-2c1-0.5,2.1-0.7,3.6-0.7c0.6,0,1.4,0.1,2.3,0.2c0.9,0.1,1.7,0.4,2.5,0.8v-5.4h-2.7v-3.4
				h7.7v22.6h2.5V64h-7.2L101,62.5L101,62.5z M97.1,49.5c-0.5,0-0.9,0.1-1.4,0.2c-0.4,0.2-0.8,0.5-1.2,0.9c-0.3,0.4-0.6,1-0.8,1.8
				c-0.2,0.8-0.3,1.8-0.3,3c0,1.1,0.1,2,0.3,2.6c0.2,0.7,0.4,1.2,0.8,1.6c0.3,0.4,0.7,0.6,1.2,0.8c0.4,0.1,0.9,0.2,1.4,0.2
				c0.6,0,1.3-0.1,2-0.4c0.7-0.3,1.3-0.6,1.7-0.9v-8.8c-0.4-0.3-1-0.5-1.7-0.7C98.4,49.6,97.8,49.5,97.1,49.5z"/>
			<path d="M117.7,48.9c0.4-0.3,0.8-0.7,1.4-1c0.5-0.4,1.1-0.7,1.6-1c0.6-0.3,1.2-0.5,1.8-0.7c0.6-0.2,1.2-0.3,1.8-0.3
				c0.4,0,0.7,0.1,0.9,0.3s0.3,0.6,0.3,1.2c0,0.3,0,0.6-0.1,1s-0.2,0.7-0.3,1.1c-0.1,0.4-0.3,0.8-0.5,1.1c-0.2,0.4-0.4,0.7-0.7,0.9
				l-6.4-0.4v9.6h2.5V64h-9.8v-3.3h2.3V49.6h-2.2v-3.4h7.2v2.6L117.7,48.9z"/>
			<path d="M127.4,49.6v-3.4h6.8v14.3h2.6v3c-0.6,0.3-1.3,0.5-2,0.6c-0.8,0.1-1.4,0.2-2,0.2c-1.3,0-2.2-0.3-2.8-0.8
				c-0.5-0.5-0.8-1.4-0.8-2.5V49.6H127.4z M134.6,41c0,0.8-0.3,1.5-0.9,2.1c-0.6,0.6-1.3,0.9-2.1,0.9s-1.6-0.3-2.1-0.9
				c-0.6-0.6-0.9-1.3-0.9-2.1s0.3-1.6,0.9-2.1c0.6-0.6,1.3-0.9,2.1-0.9s1.5,0.3,2.1,0.9C134.3,39.4,134.6,40.1,134.6,41z"/>
			<path d="M149.2,60.1c0.1-0.3,0.2-0.7,0.4-1.2s0.3-1,0.5-1.5s0.3-1,0.5-1.5s0.3-0.9,0.4-1.2c0.1-0.3,0.3-0.7,0.4-1.2
				c0.1-0.4,0.3-0.9,0.5-1.4s0.3-0.9,0.5-1.4c0.1-0.4,0.3-0.8,0.4-1.2h-1.4v-3.4h7.9v3.4h-1.6c-0.2,0.5-0.4,1.2-0.7,2
				s-0.6,1.6-0.9,2.5c-0.3,0.9-0.7,1.8-1.1,2.8c-0.4,1-0.7,1.9-1.1,2.8c-0.3,0.9-0.7,1.7-0.9,2.5c-0.3,0.8-0.5,1.4-0.7,2h-6.2
				c-0.3-0.8-0.6-1.8-1.1-3.1s-1-2.6-1.5-3.9c-0.5-1.3-1-2.7-1.5-3.9c-0.5-1.3-0.8-2.3-1.1-3.1h-1.8v-3.7h5.7l2.6,7.9
				c0.1,0.4,0.3,0.8,0.4,1.3c0.2,0.5,0.4,1.1,0.5,1.6c0.2,0.6,0.4,1.1,0.5,1.6C149,59.3,149.1,59.8,149.2,60.1L149.2,60.1
				L149.2,60.1z"/>
			<path d="M169.9,45.8c1.7,0,3.1,0.3,4.1,0.9c1,0.6,1.8,1.3,2.4,2.1c0.5,0.9,0.9,1.8,1.1,2.8c0.2,1,0.3,2,0.3,2.9v1.8h-11.4
				c0,1.5,0.3,2.6,0.9,3.3c0.7,0.7,1.8,1.1,3.5,1.1c0.9,0,1.9-0.1,2.8-0.3c0.9-0.2,1.8-0.5,2.7-0.8l1.1,3c-1.2,0.6-2.4,1.1-3.6,1.3
				c-1.3,0.3-2.5,0.4-3.7,0.4c-1.8,0-3.2-0.3-4.3-0.8s-2-1.2-2.6-2.1c-0.6-0.9-1.1-1.8-1.3-2.9c-0.2-1.1-0.4-2.2-0.4-3.4
				c0-1,0.1-2,0.4-3.1c0.3-1.1,0.7-2.1,1.4-3s1.5-1.7,2.7-2.3C166.8,46.1,168.2,45.8,169.9,45.8z M169.9,49.3
				c-0.6,0-1.1,0.1-1.5,0.3s-0.8,0.5-1.1,0.9s-0.5,0.8-0.7,1.2s-0.2,0.9-0.3,1.4h6.7c0-0.5-0.1-1-0.2-1.5c-0.1-0.5-0.3-0.9-0.5-1.2
				s-0.6-0.6-1-0.8C171,49.5,170.5,49.3,169.9,49.3z"/>
			<path d="M187.8,48.9c0.4-0.3,0.8-0.7,1.4-1c0.5-0.4,1.1-0.7,1.6-1c0.6-0.3,1.2-0.5,1.8-0.7s1.2-0.3,1.8-0.3
				c0.4,0,0.7,0.1,0.9,0.3s0.3,0.6,0.3,1.2c0,0.3,0,0.6-0.1,1s-0.2,0.7-0.3,1.1c-0.1,0.4-0.3,0.8-0.5,1.1c-0.2,0.4-0.4,0.7-0.7,0.9
				l-6.4-0.4v9.6h2.5V64h-9.8v-3.3h2.3V49.6h-2.2v-3.4h7.2v2.6L187.8,48.9z"/>
			<path d="M200.3,58.3l0.1,2.1c0.4,0.2,1,0.3,1.6,0.5c0.7,0.1,1.3,0.2,1.8,0.2c0.9,0,1.7-0.2,2.4-0.5s1-0.8,1-1.4
				c0-0.4-0.1-0.7-0.3-0.9c-0.2-0.3-0.4-0.5-0.7-0.7s-0.6-0.3-0.9-0.5c-0.4-0.1-0.7-0.2-1.1-0.3c-0.9-0.2-1.7-0.5-2.6-0.8
				c-0.9-0.3-1.6-0.6-2.3-1s-1.2-0.9-1.7-1.4c-0.4-0.6-0.6-1.3-0.6-2.2c0-1.9,0.7-3.3,2.1-4.2c1.4-0.9,3.2-1.3,5.6-1.3
				c1.1,0,2.2,0.1,3.4,0.3c1.1,0.2,2.2,0.6,3.1,1.1c0,0.7,0,1.5,0,2.2s0,1.5,0,2.3h-3.5v-2c-0.4-0.1-0.8-0.3-1.3-0.3
				s-0.9-0.1-1.3-0.1c-0.8,0-1.5,0.2-2,0.5s-0.8,0.8-0.8,1.4c0,0.3,0.1,0.5,0.3,0.7s0.4,0.4,0.7,0.5s0.6,0.3,1,0.4s0.7,0.2,1,0.3
				c0.7,0.2,1.5,0.4,2.4,0.7c0.9,0.2,1.7,0.6,2.4,1s1.3,1,1.8,1.7s0.7,1.6,0.7,2.8c0,1.7-0.7,3-2.2,3.9c-1.4,0.9-3.5,1.3-6.1,1.3
				c-0.5,0-1.1,0-1.7-0.1c-0.6,0-1.2-0.1-1.9-0.2c-0.6-0.1-1.3-0.3-1.9-0.4s-1.2-0.4-1.8-0.7c0-0.7,0-1.5,0-2.3s0-1.6,0-2.3h3.3
				V58.3z"/>
		</g>
		<g>
			<path d="M88.8,96.3V95h3.7v16.3h2.8v1c-0.4,0.2-0.9,0.3-1.4,0.4s-0.9,0.1-1.3,0.1c-0.6,0-1-0.1-1.2-0.4c-0.3-0.2-0.4-0.7-0.4-1.4
				V96.3H88.8z M90.4,90.6c0-0.3,0.1-0.6,0.4-0.9c0.2-0.2,0.5-0.4,0.8-0.4s0.6,0.1,0.9,0.4c0.2,0.2,0.4,0.5,0.4,0.9
				c0,0.3-0.1,0.6-0.4,0.8c-0.2,0.2-0.5,0.4-0.9,0.4c-0.3,0-0.6-0.1-0.8-0.4C90.5,91.2,90.4,90.9,90.4,90.6z"/>
			<path d="M109.7,110.8C109.7,110.8,109.7,110.7,109.7,110.8c-0.8,0.5-1.7,1-2.6,1.4c-1,0.4-2,0.6-3,0.6c-1.2,0-2.2-0.2-3-0.7
				s-1.5-1.1-1.9-1.9c-0.5-0.8-0.8-1.7-1.1-2.8c-0.2-1.1-0.3-2.2-0.3-3.4c0-1.3,0.1-2.6,0.4-3.7c0.2-1.2,0.6-2.2,1.2-3
				c0.5-0.9,1.3-1.5,2.1-2c0.9-0.5,1.9-0.7,3.2-0.7c0.7,0,1.6,0.1,2.5,0.3c0.9,0.2,1.8,0.6,2.7,1.1v-7.9h-3.2V87h4.7v24.4h3v1.2
				h-4.6L109.7,110.8L109.7,110.8z M109.7,97.5c-0.3-0.2-0.6-0.3-1-0.5s-0.8-0.3-1.2-0.5c-0.5-0.1-0.9-0.3-1.4-0.4s-1-0.1-1.4-0.1
				c-0.7,0-1.4,0.1-2.1,0.4c-0.6,0.3-1.2,0.7-1.7,1.4c-0.5,0.6-0.8,1.5-1.1,2.5s-0.4,2.3-0.4,3.9c0,1.4,0.1,2.5,0.4,3.4
				c0.2,0.9,0.6,1.7,1,2.3c0.4,0.6,1,1,1.6,1.2s1.3,0.4,2.1,0.4c0.4,0,0.9-0.1,1.4-0.2s1-0.3,1.5-0.5s0.9-0.4,1.4-0.7
				c0.4-0.3,0.8-0.5,1-0.8V97.5H109.7z"/>
			<path d="M103.3,154.7h2.8v0.9c-0.4,0.2-0.9,0.3-1.4,0.4s-0.9,0.1-1.2,0.1c-0.6,0-1-0.1-1.3-0.3s-0.4-0.7-0.4-1.4V144
				c0-0.7,0-1.3-0.1-1.9c0-0.6-0.2-1-0.4-1.4c-0.2-0.4-0.6-0.7-1.1-0.9s-1.1-0.3-1.9-0.3c-0.5,0-1,0.1-1.6,0.2s-1.1,0.3-1.7,0.5
				s-1.1,0.4-1.6,0.6c-0.5,0.2-1,0.5-1.4,0.7v14.6h-1.5v-16.4h-2.8v-1.3H92v1.7c0,0,0,0,0.1,0c1.1-0.6,2.2-1.1,3.4-1.5
				c1.2-0.3,2.2-0.5,3.1-0.5c1.2,0,2.1,0.2,2.7,0.5s1.1,0.7,1.4,1.2s0.5,1.1,0.6,1.7c0.1,0.6,0.1,1.2,0.1,1.8L103.3,154.7
				L103.3,154.7z"/>
			<path d="M120.7,154.7h2.9l0.1,0.9c-0.4,0.2-0.9,0.3-1.5,0.4c-0.6,0.1-1,0.1-1.4,0.1c-0.6,0-1-0.1-1.2-0.3
				c-0.3-0.2-0.4-0.7-0.4-1.4V154c-0.7,0.6-1.4,1-2.1,1.3c-0.6,0.3-1.2,0.5-1.8,0.7c-0.5,0.1-1,0.2-1.4,0.3c-0.4,0-0.7,0-1,0
				c-1,0-1.8-0.2-2.4-0.5s-1.1-0.7-1.5-1.2s-0.6-1-0.8-1.6c-0.1-0.6-0.2-1.1-0.2-1.6c0-0.8,0.2-1.5,0.5-2.2c0.3-0.6,0.7-1.2,1.3-1.6
				c0.5-0.4,1.2-0.7,2-1c0.8-0.2,1.6-0.4,2.4-0.4l5-0.3v-1.6c0-0.9-0.1-1.6-0.2-2.2c-0.1-0.6-0.4-1.1-0.7-1.5
				c-0.3-0.4-0.7-0.6-1.3-0.8c-0.5-0.2-1.2-0.3-2-0.3c-0.9,0-1.8,0.1-2.7,0.3c-0.9,0.2-1.9,0.5-2.8,0.8l-0.4-1.2
				c1-0.4,2.1-0.8,3.1-1c1.1-0.2,2.1-0.3,3.1-0.3c1.7,0,3,0.4,3.9,1.3c0.9,0.9,1.4,2.3,1.4,4.4L120.7,154.7L120.7,154.7z
				 M113.9,147.5c-1.4,0.1-2.5,0.4-3.2,1.1c-0.7,0.7-1.1,1.5-1.1,2.6c0,2.5,1.3,3.7,3.9,3.7c1.8,0,3.7-0.8,5.7-2.5v-5.2L113.9,147.5
				z"/>
			<path d="M138.6,156.1v-12.4c0-1.5-0.3-2.6-0.8-3.2c-0.5-0.7-1.4-1-2.7-1c-0.5,0-1,0.1-1.5,0.2c-0.5,0.1-1.1,0.3-1.6,0.5
				s-1,0.4-1.5,0.7c-0.5,0.2-1,0.5-1.4,0.7v14.5h-1.5v-16.3h-2.8v-1.3h4.3v1.6l0.1,0.1c1.1-0.6,2.2-1.1,3.2-1.5
				c1.1-0.3,2.1-0.5,3-0.5c1.1,0,2,0.2,2.6,0.5c0.7,0.4,1.2,0.9,1.6,1.6c1.1-0.7,2.3-1.2,3.4-1.6c1.1-0.4,2.2-0.6,3.2-0.6
				c1.2,0,2.1,0.2,2.8,0.5c0.7,0.4,1.2,0.8,1.5,1.3s0.5,1.1,0.6,1.7c0.1,0.6,0.1,1.2,0.1,1.8v11.3h2.8v0.9c-0.4,0.2-0.9,0.3-1.4,0.4
				s-0.9,0.1-1.2,0.1c-0.6,0-1-0.1-1.2-0.3c-0.3-0.2-0.4-0.7-0.4-1.4V144c0-0.7,0-1.3-0.1-1.9c-0.1-0.6-0.2-1.1-0.5-1.4
				c-0.3-0.4-0.6-0.7-1.1-0.9s-1.2-0.3-2-0.3c-0.4,0-0.9,0.1-1.4,0.2c-0.5,0.1-1.1,0.3-1.6,0.4s-1.1,0.4-1.6,0.6
				c-0.5,0.2-1,0.5-1.4,0.7c0.1,0.5,0.1,1,0.1,1.5s0,0.9,0,1.4v11.8L138.6,156.1L138.6,156.1z"/>
			<path d="M163.3,138.1c1.1,0,2.1,0.2,2.8,0.5c0.8,0.3,1.4,0.8,1.9,1.3s0.8,1.1,1.1,1.8c0.2,0.7,0.4,1.3,0.5,1.9
				c0.1,0.6,0.2,1.2,0.2,1.7s0,0.9,0,1.2v1.1h-12.1c0,1,0.1,1.9,0.2,2.8c0.1,0.9,0.4,1.7,0.9,2.3c0.4,0.7,1,1.2,1.7,1.6
				c0.7,0.4,1.6,0.6,2.7,0.6c1.1,0,2-0.1,2.9-0.3c0.8-0.2,1.7-0.5,2.8-1l0.5,1.1c-1,0.5-2,0.9-2.9,1.2s-2,0.4-3.1,0.4
				c-1.4,0-2.6-0.2-3.6-0.7c-0.9-0.5-1.7-1.1-2.2-1.9c-0.5-0.8-0.9-1.8-1.1-2.8c-0.2-1.1-0.3-2.2-0.3-3.5c0-0.5,0-1,0.1-1.6
				s0.2-1.3,0.3-2c0.2-0.7,0.4-1.4,0.7-2c0.3-0.7,0.8-1.3,1.3-1.8s1.2-1,1.9-1.3C161.3,138.3,162.2,138.1,163.3,138.1z M163.3,139.5
				c-1,0-1.8,0.2-2.5,0.6c-0.7,0.4-1.2,0.9-1.6,1.5c-0.4,0.6-0.7,1.4-1,2.2c-0.2,0.8-0.4,1.6-0.4,2.5h10.5c0-1-0.1-1.9-0.3-2.7
				s-0.4-1.5-0.8-2.1c-0.4-0.6-0.9-1.1-1.5-1.4C165,139.6,164.2,139.5,163.3,139.5z"/>
			<path d="M92.7,198.3h2.7v1.2h-6.8v-1.2h2.6v-23.2h-3v-1.3h4.6L92.7,198.3L92.7,198.3z"/>
			<path d="M98.6,183.2v-1.3h3.7v16.3h2.8v1c-0.4,0.2-0.9,0.3-1.4,0.4c-0.5,0.1-0.9,0.1-1.3,0.1c-0.6,0-1-0.1-1.2-0.4
				c-0.3-0.2-0.4-0.7-0.4-1.4v-14.6h-2.2V183.2z M100.1,177.6c0-0.3,0.1-0.6,0.4-0.9c0.2-0.2,0.5-0.4,0.8-0.4s0.6,0.1,0.9,0.4
				c0.2,0.2,0.4,0.5,0.4,0.9c0,0.3-0.1,0.6-0.4,0.8c-0.2,0.2-0.5,0.4-0.9,0.4c-0.3,0-0.6-0.1-0.8-0.4
				C100.3,178.1,100.1,177.9,100.1,177.6z"/>
			<path d="M115,181.6c0.9,0,1.8,0.1,2.7,0.3c0.9,0.2,1.6,0.4,2.3,0.7v4.1h-1.3v-3.2c-0.7-0.2-1.3-0.3-1.8-0.4
				c-0.6-0.1-1.1-0.1-1.8-0.1c-1.1,0-2,0.2-2.7,0.6c-0.7,0.4-1.4,1-1.8,1.7c-0.5,0.7-0.8,1.6-1,2.6s-0.3,2.1-0.3,3.3
				c0,1,0.1,2,0.3,2.9c0.2,0.9,0.5,1.7,0.9,2.4s1,1.2,1.7,1.6c0.7,0.4,1.6,0.6,2.7,0.6c1,0,1.9-0.1,2.7-0.3c0.8-0.2,1.7-0.5,2.7-0.9
				l0.4,1.1c-0.7,0.4-1.6,0.7-2.6,1s-2.1,0.4-3.2,0.4c-1.3,0-2.5-0.2-3.4-0.7c-0.9-0.4-1.7-1-2.2-1.8c-0.6-0.8-1-1.7-1.2-2.8
				c-0.3-1.1-0.4-2.2-0.4-3.5c0-0.9,0.1-1.9,0.3-3c0.2-1.1,0.6-2.1,1.1-3.1s1.3-1.8,2.3-2.4C112.2,181.9,113.4,181.6,115,181.6z"/>
			<path d="M130.1,181.6c1.1,0,2.1,0.2,2.8,0.5c0.8,0.3,1.4,0.8,1.9,1.3s0.8,1.1,1.1,1.8c0.2,0.7,0.4,1.3,0.5,1.9
				c0.1,0.6,0.2,1.2,0.2,1.7s0,0.9,0,1.2v1.1h-12.1c0,1,0.1,1.9,0.2,2.8c0.1,0.9,0.4,1.7,0.9,2.3c0.4,0.7,1,1.2,1.7,1.6
				c0.7,0.4,1.6,0.6,2.7,0.6c1.1,0,2-0.1,2.9-0.3c0.8-0.2,1.7-0.5,2.8-1l0.5,1.1c-1,0.5-2,0.9-2.9,1.2s-2,0.4-3.1,0.4
				c-1.4,0-2.6-0.2-3.6-0.7c-0.9-0.5-1.7-1.1-2.2-1.9c-0.5-0.8-0.9-1.8-1.1-2.8c-0.2-1.1-0.3-2.2-0.3-3.5c0-0.5,0-1,0.1-1.6
				s0.2-1.3,0.3-2c0.2-0.7,0.4-1.4,0.7-2c0.3-0.7,0.8-1.3,1.3-1.8s1.2-1,1.9-1.3C128.1,181.8,129.1,181.6,130.1,181.6z M130.2,183
				c-1,0-1.8,0.2-2.5,0.6c-0.7,0.4-1.2,0.9-1.6,1.5s-0.7,1.4-1,2.2c-0.2,0.8-0.4,1.6-0.4,2.5h10.5c0-1-0.1-1.9-0.3-2.7
				s-0.4-1.5-0.8-2.1c-0.4-0.6-0.9-1.1-1.5-1.4C131.9,183.1,131.1,183,130.2,183z"/>
			<path d="M154.4,198.2h2.8v0.9c-0.4,0.2-0.9,0.3-1.4,0.4s-0.9,0.1-1.2,0.1c-0.6,0-1-0.1-1.3-0.3s-0.4-0.7-0.4-1.4v-10.4
				c0-0.7,0-1.3-0.1-1.9c0-0.6-0.2-1-0.4-1.4s-0.6-0.7-1.1-0.9s-1.1-0.3-1.9-0.3c-0.5,0-1,0.1-1.6,0.2s-1.1,0.3-1.7,0.5
				c-0.6,0.2-1.1,0.4-1.6,0.6c-0.5,0.2-1,0.5-1.4,0.7v14.6h-1.5v-16.4h-2.8v-1.3h4.3v1.7c0,0,0,0,0.1,0c1.1-0.6,2.2-1.1,3.4-1.5
				c1.2-0.3,2.2-0.5,3.1-0.5c1.2,0,2.1,0.2,2.7,0.5s1.1,0.7,1.4,1.2c0.3,0.5,0.5,1.1,0.6,1.7c0.1,0.6,0.1,1.2,0.1,1.8v11.4H154.4z"
				/>
			<path d="M160.3,194.8l0.1,2.9c0.6,0.3,1.3,0.5,2.1,0.7c0.8,0.1,1.5,0.2,2.1,0.2c0.7,0,1.3-0.1,1.9-0.2s1.1-0.3,1.6-0.6
				s0.8-0.6,1.1-1.1c0.3-0.4,0.4-1,0.4-1.7c0-0.6-0.1-1-0.4-1.4c-0.2-0.4-0.6-0.7-1-1s-0.9-0.5-1.4-0.7s-1.1-0.4-1.6-0.5
				c-0.7-0.2-1.4-0.4-2.1-0.7c-0.7-0.2-1.3-0.5-1.8-0.9s-1-0.8-1.3-1.4c-0.3-0.5-0.5-1.2-0.5-2s0.2-1.6,0.5-2.2
				c0.3-0.6,0.7-1.1,1.3-1.4c0.5-0.4,1.1-0.6,1.8-0.8s1.4-0.3,2.2-0.3c0.7,0,1.4,0.1,2.3,0.3c0.9,0.2,1.7,0.5,2.4,0.9v3.9h-1.3
				l-0.1-3.1c-0.5-0.2-1-0.4-1.7-0.5c-0.6-0.1-1.2-0.2-1.8-0.2s-1.2,0.1-1.7,0.2s-0.9,0.3-1.3,0.6c-0.4,0.3-0.7,0.6-0.9,1
				s-0.3,0.9-0.3,1.6c0,0.5,0.1,1,0.4,1.4c0.3,0.4,0.6,0.7,1.1,0.9c0.4,0.3,0.9,0.5,1.4,0.6c0.5,0.2,0.9,0.3,1.3,0.4
				c0.7,0.2,1.4,0.4,2.2,0.7s1.4,0.6,1.9,0.9c0.6,0.4,1,0.9,1.3,1.4c0.3,0.6,0.5,1.3,0.5,2.2s-0.2,1.6-0.5,2.2
				c-0.4,0.6-0.8,1.1-1.4,1.5c-0.6,0.4-1.3,0.7-2,0.9s-1.6,0.3-2.4,0.3c-1,0-2-0.1-3.1-0.3c-1-0.2-1.9-0.5-2.5-1l-0.1-3.7
				L160.3,194.8L160.3,194.8z"/>
			<path d="M180.9,181.6c1.1,0,2.1,0.2,2.8,0.5c0.8,0.3,1.4,0.8,1.9,1.3s0.8,1.1,1.1,1.8c0.2,0.7,0.4,1.3,0.5,1.9
				c0.1,0.6,0.2,1.2,0.2,1.7s0,0.9,0,1.2v1.1h-12.1c0,1,0.1,1.9,0.2,2.8c0.1,0.9,0.4,1.7,0.9,2.3c0.4,0.7,1,1.2,1.7,1.6
				c0.7,0.4,1.6,0.6,2.7,0.6c1.1,0,2-0.1,2.9-0.3c0.8-0.2,1.7-0.5,2.8-1l0.5,1.1c-1,0.5-2,0.9-2.9,1.2s-2,0.4-3.1,0.4
				c-1.4,0-2.6-0.2-3.6-0.7c-0.9-0.5-1.7-1.1-2.2-1.9c-0.5-0.8-0.9-1.8-1.1-2.8c-0.2-1.1-0.3-2.2-0.3-3.5c0-0.5,0-1,0.1-1.6
				s0.2-1.3,0.3-2c0.2-0.7,0.4-1.4,0.7-2c0.3-0.7,0.8-1.3,1.3-1.8s1.2-1,1.9-1.3C178.9,181.8,179.8,181.6,180.9,181.6z M180.9,183
				c-1,0-1.8,0.2-2.5,0.6c-0.7,0.4-1.2,0.9-1.6,1.5c-0.4,0.6-0.7,1.4-1,2.2c-0.2,0.8-0.4,1.6-0.4,2.5h10.5c0-1-0.1-1.9-0.3-2.7
				s-0.4-1.5-0.8-2.1c-0.4-0.6-0.9-1.1-1.5-1.4C182.7,183.1,181.9,183,180.9,183z"/>
			<path d="M188.7,203.9v-1.1h18.1v1.1H188.7z"/>
			<path d="M223.3,198.2h2.8v0.9c-0.4,0.2-0.9,0.3-1.4,0.4s-0.9,0.1-1.2,0.1c-0.6,0-1-0.1-1.3-0.3s-0.4-0.7-0.4-1.4v-10.4
				c0-0.7,0-1.3-0.1-1.9c0-0.6-0.2-1-0.4-1.4s-0.6-0.7-1.1-0.9s-1.1-0.3-1.9-0.3c-0.5,0-1,0.1-1.6,0.2s-1.1,0.3-1.7,0.5
				c-0.6,0.2-1.1,0.4-1.6,0.6c-0.5,0.2-1,0.5-1.4,0.7v14.6h-1.5v-16.4h-2.8v-1.3h4.3v1.7c0,0,0,0,0.1,0c1.1-0.6,2.2-1.1,3.4-1.5
				c1.2-0.3,2.2-0.5,3.1-0.5c1.2,0,2.1,0.2,2.7,0.5s1.1,0.7,1.4,1.2c0.3,0.5,0.5,1.1,0.6,1.7c0.1,0.6,0.1,1.2,0.1,1.8v11.4H223.3z"
				/>
			<path d="M241.3,197.9c0-0.1,0-0.3,0-0.5c-0.7,0.6-1.3,1-1.9,1.4c-0.6,0.3-1.2,0.6-1.8,0.8c-0.5,0.2-1,0.3-1.5,0.3
				c-0.4,0-0.8,0.1-1.1,0.1c-1.2,0-2.1-0.2-2.8-0.5s-1.1-0.8-1.4-1.3c-0.3-0.5-0.5-1.1-0.5-1.7c0-0.6-0.1-1.2-0.1-1.8v-11.5h-2.8
				V182h4.3v12c0,0.7,0,1.3,0.1,1.9c0.1,0.6,0.2,1,0.4,1.4s0.6,0.7,1,0.9s1.1,0.3,1.9,0.3c0.4,0,0.8-0.1,1.3-0.2
				c0.5-0.1,1-0.3,1.6-0.5c0.5-0.2,1.1-0.5,1.6-0.8s1.1-0.7,1.5-1.2v-12.7h-2.7v-1.2c0.7,0,1.4,0,2.1,0c0.7,0,1.4,0,2.1,0l0,0l0,0
				c0,2.7,0,5.4,0,8.1c0,2.7,0,5.4,0,8.1h2.7v0.9c-0.4,0.2-0.9,0.3-1.3,0.4s-0.9,0.1-1.2,0.1c-0.6,0-1-0.1-1.3-0.4
				C241.5,199.1,241.3,198.6,241.3,197.9z"/>
			<path d="M260.9,199.6v-12.4c0-1.5-0.3-2.6-0.8-3.2c-0.5-0.7-1.4-1-2.7-1c-0.5,0-1,0.1-1.5,0.2c-0.5,0.1-1.1,0.3-1.6,0.5
				s-1,0.4-1.5,0.7c-0.5,0.2-1,0.5-1.4,0.7v14.5h-1.5v-16.3H247V182h4.3v1.6l0.1,0.1c1.1-0.6,2.2-1.1,3.2-1.5c1.1-0.3,2.1-0.5,3-0.5
				c1.1,0,2,0.2,2.6,0.5c0.7,0.4,1.2,0.9,1.6,1.6c1.1-0.7,2.3-1.2,3.4-1.6c1.1-0.4,2.2-0.6,3.2-0.6c1.2,0,2.1,0.2,2.8,0.5
				c0.7,0.4,1.2,0.8,1.5,1.3s0.5,1.1,0.6,1.7c0.1,0.6,0.1,1.2,0.1,1.8v11.3h2.8v0.9c-0.4,0.2-0.9,0.3-1.4,0.4s-0.9,0.1-1.2,0.1
				c-0.6,0-1-0.1-1.2-0.3c-0.3-0.2-0.4-0.7-0.4-1.4v-10.4c0-0.7,0-1.3-0.1-1.9c-0.1-0.6-0.2-1.1-0.5-1.4c-0.3-0.4-0.6-0.7-1.1-0.9
				s-1.2-0.3-2-0.3c-0.4,0-0.9,0.1-1.4,0.2c-0.5,0.1-1.1,0.3-1.6,0.4s-1.1,0.4-1.6,0.6c-0.5,0.2-1,0.5-1.4,0.7
				c0.1,0.5,0.1,1,0.1,1.5s0,0.9,0,1.4v11.8L260.9,199.6L260.9,199.6z"/>
			<path d="M286.8,181.6c1.3,0,2.3,0.2,3.1,0.7s1.5,1.1,2,2c0.5,0.8,0.8,1.8,1,3c0.2,1.1,0.3,2.4,0.3,3.7c0,1.2-0.1,2.4-0.4,3.5
				c-0.2,1.1-0.6,2-1.2,2.8c-0.5,0.8-1.3,1.4-2.2,1.9c-0.9,0.5-2,0.7-3.3,0.7s-2.5-0.1-3.5-0.4c-1.1-0.3-2-0.6-3-1v-23.2h-3.1V174
				h4.6v9.5c1.2-0.6,2.2-1.1,3.1-1.3C285.2,181.7,286,181.6,286.8,181.6z M286.8,182.9c-1,0-2,0.2-3,0.5c-1,0.4-1.8,0.8-2.6,1.2
				v12.8c0.8,0.4,1.7,0.6,2.5,0.8s1.6,0.2,2.3,0.2c0.9,0,1.6-0.1,2.3-0.4c0.7-0.3,1.3-0.7,1.7-1.3c0.5-0.6,0.8-1.4,1.1-2.3
				c0.3-0.9,0.4-2.1,0.4-3.5c0-1.6-0.1-2.8-0.3-3.9c-0.2-1-0.5-1.9-1-2.5c-0.4-0.6-0.9-1.1-1.5-1.3
				C288.1,183,287.5,182.9,286.8,182.9z"/>
			<path d="M303.6,181.6c1.1,0,2.1,0.2,2.8,0.5c0.8,0.3,1.4,0.8,1.9,1.3s0.8,1.1,1.1,1.8c0.2,0.7,0.4,1.3,0.5,1.9
				c0.1,0.6,0.2,1.2,0.2,1.7s0,0.9,0,1.2v1.1H298c0,1,0.1,1.9,0.2,2.8c0.1,0.9,0.4,1.7,0.9,2.3c0.4,0.7,1,1.2,1.7,1.6
				c0.7,0.4,1.6,0.6,2.7,0.6s2-0.1,2.9-0.3c0.8-0.2,1.7-0.5,2.8-1l0.5,1.1c-1,0.5-2,0.9-2.9,1.2s-2,0.4-3.1,0.4
				c-1.4,0-2.6-0.2-3.6-0.7c-0.9-0.5-1.7-1.1-2.2-1.9c-0.5-0.8-0.9-1.8-1.1-2.8c-0.2-1.1-0.3-2.2-0.3-3.5c0-0.5,0-1,0.1-1.6
				s0.2-1.3,0.3-2c0.2-0.7,0.4-1.4,0.7-2c0.3-0.7,0.8-1.3,1.3-1.8s1.2-1,1.9-1.3C301.6,181.8,302.5,181.6,303.6,181.6z M303.6,183
				c-1,0-1.8,0.2-2.5,0.6c-0.7,0.4-1.2,0.9-1.6,1.5s-0.7,1.4-1,2.2c-0.2,0.8-0.4,1.6-0.4,2.5h10.5c0-1-0.1-1.9-0.3-2.7
				c-0.2-0.8-0.4-1.5-0.8-2.1s-0.9-1.1-1.5-1.4C305.4,183.1,304.6,183,303.6,183z"/>
			<path d="M316.7,184.3c0.3-0.3,0.7-0.6,1.2-0.9c0.5-0.3,1-0.6,1.5-0.9c0.5-0.3,1.1-0.5,1.6-0.7c0.6-0.2,1.1-0.3,1.5-0.3
				c0.2,0,0.3,0,0.4,0.1s0.2,0.3,0.2,0.5s0,0.5-0.1,0.8s-0.2,0.6-0.4,0.8l-5.9,1.2v13.3h3v1.2h-7.2v-1.2h2.8v-15.1h-2.8v-1.3h4.2
				L316.7,184.3L316.7,184.3z"/>
		</g>
		<g>
			<path d="M165,116.8h-23.8c-6.3,0-11.5-5.2-11.5-11.5V93.4c0-6.3,5.2-11.5,11.5-11.5H165c6.3,0,11.5,5.2,11.5,11.5v11.9
				C176.5,111.6,171.3,116.8,165,116.8z"/>
			<g>
				<path class="st1" d="M151.4,96.9c0,0.6-0.1,1.1-0.3,1.7s-0.5,1.1-0.9,1.6s-0.9,0.8-1.6,1.1c-0.6,0.3-1.4,0.4-2.3,0.4h-2.9v3.9h2
					v2.2h-6.8v-2.2h1.5V94.3h-1.5v-2.2h7.4c1.8,0,3.1,0.4,4,1.3C151,94.3,151.4,95.4,151.4,96.9z M143.5,94.3v5.3h2.1
					c0.3,0,0.6,0,1-0.1s0.6-0.3,0.8-0.5s0.4-0.5,0.5-0.8s0.2-0.7,0.2-1.2c0-0.9-0.2-1.6-0.7-2c-0.4-0.4-1.1-0.6-1.9-0.6h-2V94.3z"/>
				<path class="st1" d="M161.8,98.3l4.9,7.3h1.3v2.2h-6.3v-2.2h1.3l-3.6-5.4l-1.7,1.6v3.8h1.4v2.1H153v-2.1h1.6V94.3H153v-2.1h6.2
					v2.1h-1.5V99l5.1-4.7h-1.3v-2.1h6v2.1h-1.4L161.8,98.3z"/>
			</g>
		</g>
		
			<linearGradient id="SVGID_2_" gradientUnits="userSpaceOnUse" x1="451.3" y1="371.83" x2="793.6" y2="371.83" gradientTransform="matrix(1 0 0 -1 0 495.28)">
			<stop  offset="0" style="stop-color:#F4F414"/>
			<stop  offset="1" style="stop-color:#FFFFA7"/>
		</linearGradient>
		<path class="st2" d="M781.6,224.7H463.3c-6.6,0-12-5.4-12-12V34.2c0-6.6,5.4-12,12-12h318.3c6.6,0,12,5.4,12,12v178.5
			C793.6,219.3,788.2,224.7,781.6,224.7z"/>
		<g>
			<path d="M500.1,45.9c1,0,2,0.1,2.9,0.2c1,0.1,1.9,0.4,2.7,0.7v5.4h-3.4v-2.4c-0.7-0.1-1.3-0.2-1.7-0.2c-1.5,0-2.6,0.5-3.4,1.4
				c-0.7,1-1.1,2.3-1.1,4.2c0,2,0.4,3.4,1.2,4.2c0.8,0.8,1.9,1.2,3.3,1.2c0.8,0,1.7-0.1,2.5-0.3s1.6-0.4,2.4-0.7l0.9,3.2
				c-0.8,0.4-1.8,0.7-3,1s-2.4,0.4-3.6,0.4c-1.7,0-3.1-0.2-4.3-0.7c-1.1-0.5-2-1.1-2.7-1.9c-0.7-0.8-1.1-1.8-1.4-2.9
				s-0.4-2.3-0.4-3.5c0-1,0.1-2.1,0.4-3.2c0.2-1.1,0.7-2.1,1.3-3c0.7-0.9,1.6-1.7,2.7-2.3C496.7,46.2,498.2,45.9,500.1,45.9z"/>
			<path d="M524.7,60.6h2.7l0.3,2.7c-0.9,0.4-1.7,0.6-2.6,0.8c-0.9,0.2-1.6,0.2-2.1,0.2c-0.8,0-1.4-0.1-1.9-0.4
				c-0.5-0.3-0.8-0.9-0.8-1.9l0,0l0,0c-0.6,0.6-1.2,1-1.8,1.4s-1.2,0.6-1.7,0.7s-1,0.2-1.4,0.3c-0.4,0-0.8,0.1-1,0.1
				c-1.1,0-2-0.2-2.7-0.5c-0.7-0.3-1.3-0.8-1.7-1.3s-0.7-1.1-0.8-1.7c-0.2-0.6-0.2-1.2-0.2-1.7c0-0.7,0.1-1.3,0.4-1.9
				c0.3-0.6,0.7-1.2,1.2-1.6c0.5-0.5,1.2-0.9,2-1.2c0.8-0.3,1.7-0.5,2.7-0.6l5-0.3v-0.9c0-1-0.2-1.8-0.7-2.4
				c-0.4-0.5-1.3-0.8-2.6-0.8c-0.9,0-1.8,0.1-2.8,0.3s-1.9,0.4-2.7,0.7c-0.1-0.5-0.3-1-0.4-1.5s-0.3-1-0.4-1.6
				c1-0.5,2.2-0.8,3.6-1.1c1.4-0.2,2.7-0.4,3.9-0.4c1,0,2,0.1,2.8,0.3s1.6,0.5,2.1,1c0.6,0.5,1,1.1,1.3,1.9c0.3,0.8,0.5,1.7,0.5,2.9
				v8.5H524.7z M516.6,56.3c-0.9,0.1-1.5,0.4-1.9,0.8c-0.4,0.4-0.6,1-0.6,1.6c0,0.8,0.2,1.5,0.6,1.9c0.4,0.4,1,0.6,1.9,0.6
				c0.6,0,1.1-0.1,1.8-0.4c0.6-0.3,1.2-0.6,1.6-1.1V56L516.6,56.3z"/>
			<path d="M536.7,48.9c0.4-0.3,0.8-0.7,1.4-1c0.5-0.4,1.1-0.7,1.6-1c0.6-0.3,1.2-0.5,1.8-0.7s1.2-0.3,1.8-0.3
				c0.4,0,0.7,0.1,0.9,0.3s0.3,0.6,0.3,1.2c0,0.3,0,0.6-0.1,1s-0.2,0.7-0.3,1.1c-0.1,0.4-0.3,0.8-0.5,1.1c-0.2,0.4-0.4,0.7-0.7,0.9
				l-6.4-0.4v9.6h2.5V64h-9.8v-3.3h2.3V49.6h-2.2v-3.4h7.2v2.6L536.7,48.9z"/>
			<path d="M549.3,58.3l0.1,2.1c0.4,0.2,1,0.3,1.6,0.5c0.7,0.1,1.3,0.2,1.8,0.2c0.9,0,1.7-0.2,2.4-0.5s1-0.8,1-1.4
				c0-0.4-0.1-0.7-0.3-0.9c-0.2-0.3-0.4-0.5-0.7-0.7s-0.6-0.3-0.9-0.5c-0.4-0.1-0.7-0.2-1.1-0.3c-0.9-0.2-1.7-0.5-2.6-0.8
				c-0.9-0.3-1.6-0.6-2.3-1s-1.2-0.9-1.7-1.4c-0.4-0.6-0.6-1.3-0.6-2.2c0-1.9,0.7-3.3,2.1-4.2c1.4-0.9,3.2-1.3,5.6-1.3
				c1.1,0,2.2,0.1,3.4,0.3c1.1,0.2,2.2,0.6,3.1,1.1c0,0.7,0,1.5,0,2.2s0,1.5,0,2.3h-3.5v-2c-0.4-0.1-0.8-0.3-1.2-0.3
				c-0.5-0.1-0.9-0.1-1.3-0.1c-0.8,0-1.5,0.2-2,0.5s-0.8,0.8-0.8,1.4c0,0.3,0.1,0.5,0.3,0.7s0.4,0.4,0.7,0.5s0.6,0.3,1,0.4
				s0.7,0.2,1,0.3c0.7,0.2,1.5,0.4,2.4,0.7s1.7,0.6,2.4,1s1.3,1,1.8,1.7s0.7,1.6,0.7,2.8c0,1.7-0.7,3-2.2,3.9
				c-1.5,0.9-3.5,1.3-6.1,1.3c-0.5,0-1.1,0-1.7-0.1c-0.6,0-1.2-0.1-1.9-0.2c-0.6-0.1-1.3-0.3-1.9-0.4s-1.2-0.4-1.8-0.7
				c0-0.7,0-1.5,0-2.3s0-1.6,0-2.3h3.2V58.3z"/>
			<path d="M562.8,69.3v-2.5h18.1v2.5H562.8z"/>
			<path d="M595,62.5c-0.4,0.3-0.8,0.6-1.3,0.8s-0.9,0.4-1.4,0.6c-0.5,0.2-1,0.3-1.4,0.4c-0.5,0.1-0.9,0.1-1.3,0.1
				c-1.4,0-2.5-0.2-3.4-0.7s-1.7-1.1-2.2-1.9c-0.6-0.8-1-1.7-1.2-2.8s-0.3-2.2-0.3-3.4c0-1.4,0.1-2.7,0.4-3.8s0.7-2.2,1.3-3.1
				s1.4-1.6,2.4-2c1-0.5,2.2-0.7,3.6-0.7c0.6,0,1.4,0.1,2.3,0.2s1.7,0.4,2.5,0.8v-5.4h-2.7v-3.4h7.7v22.6h2.5V64H595V62.5L595,62.5z
				 M591.1,49.5c-0.5,0-0.9,0.1-1.4,0.2s-0.8,0.5-1.2,0.9s-0.6,1-0.8,1.8s-0.3,1.8-0.3,3c0,1.1,0.1,2,0.3,2.6
				c0.2,0.7,0.4,1.2,0.8,1.6c0.3,0.4,0.7,0.6,1.2,0.8c0.4,0.1,0.9,0.2,1.4,0.2c0.6,0,1.3-0.1,2-0.4c0.7-0.3,1.3-0.6,1.7-0.9v-8.8
				c-0.4-0.3-1-0.5-1.7-0.7S591.7,49.5,591.1,49.5z"/>
			<path d="M611.6,48.9c0.4-0.3,0.8-0.7,1.4-1c0.5-0.4,1.1-0.7,1.6-1c0.6-0.3,1.2-0.5,1.8-0.7s1.2-0.3,1.8-0.3
				c0.4,0,0.7,0.1,0.9,0.3s0.3,0.6,0.3,1.2c0,0.3,0,0.6-0.1,1s-0.2,0.7-0.3,1.1c-0.1,0.4-0.3,0.8-0.5,1.1c-0.2,0.4-0.4,0.7-0.7,0.9
				l-6.4-0.4v9.6h2.5V64h-9.8v-3.3h2.3V49.6h-2.2v-3.4h7.2v2.6L611.6,48.9z"/>
			<path d="M621.4,49.6v-3.4h6.8v14.3h2.6v3c-0.6,0.3-1.3,0.5-2,0.6c-0.8,0.1-1.4,0.2-2,0.2c-1.3,0-2.2-0.3-2.8-0.8
				c-0.5-0.5-0.8-1.4-0.8-2.5V49.6H621.4z M628.6,41c0,0.8-0.3,1.5-0.9,2.1c-0.6,0.6-1.3,0.9-2.1,0.9s-1.6-0.3-2.1-0.9
				c-0.6-0.6-0.9-1.3-0.9-2.1s0.3-1.6,0.9-2.1c0.6-0.6,1.3-0.9,2.1-0.9s1.5,0.3,2.1,0.9C628.3,39.4,628.6,40.1,628.6,41z"/>
			<path d="M643.1,60.1c0.1-0.3,0.2-0.7,0.4-1.2s0.3-1,0.5-1.5s0.3-1,0.5-1.5s0.3-0.9,0.4-1.2c0.1-0.3,0.3-0.7,0.4-1.2
				c0.1-0.4,0.3-0.9,0.5-1.4s0.3-0.9,0.5-1.4c0.1-0.4,0.3-0.8,0.4-1.2h-1.4v-3.4h7.9v3.4h-1.6c-0.2,0.5-0.4,1.2-0.7,2
				s-0.6,1.6-0.9,2.5c-0.3,0.9-0.7,1.8-1.1,2.8c-0.4,1-0.7,1.9-1.1,2.8c-0.3,0.9-0.7,1.7-0.9,2.5c-0.3,0.8-0.5,1.4-0.7,2H640
				c-0.3-0.8-0.6-1.8-1.1-3.1s-1-2.6-1.5-3.9c-0.5-1.3-1-2.7-1.5-3.9c-0.5-1.3-0.8-2.3-1.1-3.1H633v-3.7h5.7l2.6,7.9
				c0.1,0.4,0.3,0.8,0.4,1.3c0.2,0.5,0.4,1.1,0.5,1.6c0.2,0.6,0.4,1.1,0.5,1.6C642.9,59.3,643,59.8,643.1,60.1L643.1,60.1
				L643.1,60.1z"/>
			<path d="M663.9,45.8c1.7,0,3.1,0.3,4.1,0.9c1,0.6,1.8,1.3,2.4,2.1c0.5,0.9,0.9,1.8,1.1,2.8c0.2,1,0.3,2,0.3,2.9v1.8h-11.4
				c0,1.5,0.3,2.6,0.9,3.3c0.7,0.7,1.8,1.1,3.5,1.1c0.9,0,1.9-0.1,2.8-0.3c0.9-0.2,1.8-0.5,2.7-0.8l1.1,3c-1.2,0.6-2.4,1.1-3.6,1.3
				s-2.5,0.4-3.7,0.4c-1.8,0-3.2-0.3-4.3-0.8s-2-1.2-2.6-2.1c-0.6-0.9-1.1-1.8-1.3-2.9c-0.2-1.1-0.4-2.2-0.4-3.4c0-1,0.1-2,0.4-3.1
				c0.3-1.1,0.7-2.1,1.4-3s1.5-1.7,2.7-2.3C660.8,46.1,662.2,45.8,663.9,45.8z M663.9,49.3c-0.6,0-1.1,0.1-1.5,0.3s-0.8,0.5-1.1,0.9
				s-0.5,0.8-0.7,1.2s-0.2,0.9-0.3,1.4h6.7c0-0.5-0.1-1-0.2-1.5c-0.1-0.5-0.3-0.9-0.5-1.2s-0.6-0.6-1-0.8
				C665,49.5,664.5,49.3,663.9,49.3z"/>
			<path d="M681.7,48.9c0.4-0.3,0.8-0.7,1.4-1c0.5-0.4,1.1-0.7,1.6-1c0.6-0.3,1.2-0.5,1.8-0.7s1.2-0.3,1.8-0.3
				c0.4,0,0.7,0.1,0.9,0.3s0.3,0.6,0.3,1.2c0,0.3,0,0.6-0.1,1s-0.2,0.7-0.3,1.1c-0.1,0.4-0.3,0.8-0.5,1.1c-0.2,0.4-0.4,0.7-0.7,0.9
				l-6.4-0.4v9.6h2.5V64h-9.8v-3.3h2.3V49.6h-2.2v-3.4h7.2v2.6L681.7,48.9z"/>
			<path d="M694.3,58.3l0.1,2.1c0.4,0.2,1,0.3,1.6,0.5c0.7,0.1,1.3,0.2,1.8,0.2c0.9,0,1.7-0.2,2.4-0.5s1-0.8,1-1.4
				c0-0.4-0.1-0.7-0.3-0.9c-0.2-0.3-0.4-0.5-0.7-0.7s-0.6-0.3-0.9-0.5c-0.4-0.1-0.7-0.2-1.1-0.3c-0.9-0.2-1.7-0.5-2.6-0.8
				c-0.9-0.3-1.6-0.6-2.3-1s-1.2-0.9-1.7-1.4c-0.4-0.6-0.6-1.3-0.6-2.2c0-1.9,0.7-3.3,2.1-4.2c1.4-0.9,3.2-1.3,5.6-1.3
				c1.1,0,2.2,0.1,3.4,0.3c1.1,0.2,2.2,0.6,3.1,1.1c0,0.7,0,1.5,0,2.2s0,1.5,0,2.3h-3.5v-2c-0.4-0.1-0.8-0.3-1.2-0.3
				c-0.5-0.1-0.9-0.1-1.3-0.1c-0.8,0-1.5,0.2-2,0.5s-0.8,0.8-0.8,1.4c0,0.3,0.1,0.5,0.3,0.7s0.4,0.4,0.7,0.5s0.6,0.3,1,0.4
				s0.7,0.2,1,0.3c0.7,0.2,1.5,0.4,2.4,0.7s1.7,0.6,2.4,1s1.3,1,1.8,1.7s0.7,1.6,0.7,2.8c0,1.7-0.7,3-2.2,3.9
				c-1.5,0.9-3.5,1.3-6.1,1.3c-0.5,0-1.1,0-1.7-0.1c-0.6,0-1.2-0.1-1.9-0.2c-0.6-0.1-1.3-0.3-1.9-0.4s-1.2-0.4-1.8-0.7
				c0-0.7,0-1.5,0-2.3s0-1.6,0-2.3h3.2V58.3z"/>
		</g>
		<g>
			<path d="M503.1,110.8C503.1,110.8,503.1,110.7,503.1,110.8c-0.8,0.5-1.7,1-2.6,1.4c-1,0.4-2,0.6-3,0.6c-1.2,0-2.2-0.2-3-0.7
				s-1.5-1.1-1.9-1.9c-0.5-0.8-0.8-1.7-1.1-2.8c-0.2-1.1-0.3-2.2-0.3-3.4c0-1.3,0.1-2.6,0.4-3.7s0.6-2.2,1.2-3
				c0.5-0.9,1.2-1.5,2.1-2s1.9-0.7,3.2-0.7c0.7,0,1.6,0.1,2.5,0.3c0.9,0.2,1.8,0.6,2.7,1.1v-7.9h-3.2V87h4.7v24.4h3v1.2h-4.6v-1.8
				H503.1z M503.1,97.5c-0.3-0.2-0.6-0.3-1-0.5s-0.8-0.3-1.2-0.5c-0.5-0.1-0.9-0.3-1.4-0.4s-1-0.1-1.4-0.1c-0.7,0-1.4,0.1-2.1,0.4
				c-0.6,0.3-1.2,0.7-1.7,1.4c-0.5,0.6-0.8,1.5-1.1,2.5s-0.4,2.3-0.4,3.9c0,1.4,0.1,2.5,0.4,3.4c0.2,0.9,0.6,1.7,1,2.3
				c0.4,0.6,1,1,1.6,1.2s1.3,0.4,2.1,0.4c0.4,0,0.9-0.1,1.4-0.2s1-0.3,1.5-0.5s0.9-0.4,1.4-0.7c0.4-0.3,0.8-0.5,1-0.8L503.1,97.5
				L503.1,97.5z"/>
			<path d="M513.2,97.3c0.3-0.3,0.7-0.6,1.2-0.9s1-0.6,1.5-0.9s1.1-0.5,1.6-0.7s1.1-0.3,1.5-0.3c0.2,0,0.3,0,0.4,0.1
				c0.1,0.1,0.2,0.3,0.2,0.5s0,0.5-0.1,0.8s-0.2,0.6-0.4,0.8l-5.9,1.2v13.3h3v1.2H509v-1.2h2.8V96.3H509V95h4.2V97.3L513.2,97.3z"/>
			<path d="M521.7,96.3V95h3.7v16.3h2.8v1c-0.4,0.2-0.9,0.3-1.4,0.4s-0.9,0.1-1.2,0.1c-0.6,0-1-0.1-1.2-0.4
				c-0.3-0.2-0.4-0.7-0.4-1.4V96.3H521.7z M523.3,90.6c0-0.3,0.1-0.6,0.4-0.9c0.2-0.2,0.5-0.4,0.8-0.4s0.6,0.1,0.9,0.4
				c0.2,0.2,0.4,0.5,0.4,0.9c0,0.3-0.1,0.6-0.4,0.8c-0.2,0.2-0.5,0.4-0.9,0.4c-0.3,0-0.6-0.1-0.8-0.4
				C523.4,91.2,523.3,90.9,523.3,90.6z"/>
			<path d="M534.7,101.2c0.7,2.1,1.3,4.2,2,6.4l1.1,3.3h0.1c0.2-0.5,0.3-1,0.5-1.5c0.1-0.5,0.3-1,0.5-1.5l3.7-11.7h-1.9V95h5.3v1.3
				h-2c-0.9,2.7-1.8,5.4-2.7,8.1s-1.8,5.4-2.7,8.1h-1.8c-0.9-2.7-1.7-5.4-2.6-8.1c-0.9-2.7-1.8-5.4-2.6-8.1h-2.1V95h3.3
				C533.4,97.1,534,99.1,534.7,101.2z"/>
			<path d="M555,94.6c1.1,0,2.1,0.2,2.8,0.5c0.8,0.3,1.4,0.8,1.9,1.3s0.8,1.1,1.1,1.8s0.4,1.3,0.5,1.9s0.2,1.2,0.2,1.7s0,0.9,0,1.2
				v1.1h-12.1c0,1,0.1,1.9,0.2,2.8c0.1,0.9,0.4,1.7,0.9,2.3c0.4,0.7,1,1.2,1.7,1.6s1.6,0.6,2.7,0.6c1.1,0,2-0.1,2.9-0.3
				c0.8-0.2,1.7-0.5,2.8-1l0.5,1.1c-1,0.5-2,0.9-2.9,1.2c-0.9,0.3-2,0.4-3.1,0.4c-1.4,0-2.6-0.2-3.6-0.7s-1.7-1.1-2.2-1.9
				s-0.9-1.8-1.1-2.8c-0.2-1.1-0.3-2.2-0.3-3.5c0-0.5,0-1,0.1-1.6s0.2-1.3,0.3-2c0.2-0.7,0.4-1.4,0.7-2c0.3-0.7,0.8-1.3,1.3-1.8
				s1.2-1,1.9-1.3C553,94.8,553.9,94.6,555,94.6z M555,96c-1,0-1.8,0.2-2.5,0.6s-1.2,0.9-1.6,1.5c-0.4,0.6-0.7,1.4-1,2.2
				c-0.2,0.8-0.4,1.6-0.4,2.5H560c0-1-0.1-1.9-0.3-2.7c-0.2-0.8-0.4-1.5-0.8-2.1c-0.4-0.6-0.9-1.1-1.5-1.4C556.7,96.2,556,96,555,96
				z"/>
			<path d="M568.1,97.3c0.3-0.3,0.7-0.6,1.2-0.9s1-0.6,1.5-0.9s1.1-0.5,1.6-0.7s1.1-0.3,1.5-0.3c0.2,0,0.3,0,0.4,0.1
				c0.1,0.1,0.2,0.3,0.2,0.5s0,0.5-0.1,0.8s-0.2,0.6-0.4,0.8l-5.9,1.2v13.3h3v1.2h-7.2v-1.2h2.8V96.3h-2.8V95h4.2V97.3L568.1,97.3z"
				/>
			<path d="M574.7,117v-1.1h18.1v1.1H574.7z"/>
			<path d="M594.7,96.3V95h3.7v16.3h2.8v1c-0.4,0.2-0.9,0.3-1.4,0.4s-0.9,0.1-1.2,0.1c-0.6,0-1-0.1-1.2-0.4
				c-0.3-0.2-0.4-0.7-0.4-1.4V96.3H594.7z M596.3,90.6c0-0.3,0.1-0.6,0.4-0.9c0.2-0.2,0.5-0.4,0.8-0.4s0.6,0.1,0.9,0.4
				c0.2,0.2,0.4,0.5,0.4,0.9c0,0.3-0.1,0.6-0.4,0.8c-0.2,0.2-0.5,0.4-0.9,0.4c-0.3,0-0.6-0.1-0.8-0.4
				C596.4,91.2,596.3,90.9,596.3,90.6z"/>
			<path d="M615.7,110.8C615.6,110.8,615.6,110.7,615.7,110.8c-0.8,0.5-1.7,1-2.6,1.4c-1,0.4-2,0.6-3,0.6c-1.2,0-2.2-0.2-3-0.7
				s-1.5-1.1-1.9-1.9c-0.5-0.8-0.8-1.7-1.1-2.8c-0.2-1.1-0.3-2.2-0.3-3.4c0-1.3,0.1-2.6,0.4-3.7s0.6-2.2,1.2-3
				c0.5-0.9,1.2-1.5,2.1-2c0.9-0.5,1.9-0.7,3.2-0.7c0.7,0,1.6,0.1,2.5,0.3c0.9,0.2,1.8,0.6,2.7,1.1v-7.9h-3.2V87h4.7v24.4h3v1.2
				h-4.6v-1.8H615.7z M615.7,97.5c-0.3-0.2-0.6-0.3-1-0.5s-0.8-0.3-1.2-0.5c-0.5-0.1-0.9-0.3-1.4-0.4s-1-0.1-1.4-0.1
				c-0.7,0-1.4,0.1-2.1,0.4c-0.6,0.3-1.2,0.7-1.7,1.4c-0.5,0.6-0.8,1.5-1.1,2.5s-0.4,2.3-0.4,3.9c0,1.4,0.1,2.5,0.4,3.4
				c0.2,0.9,0.6,1.7,1,2.3c0.4,0.6,1,1,1.6,1.2s1.3,0.4,2.1,0.4c0.4,0,0.9-0.1,1.4-0.2s1-0.3,1.5-0.5s0.9-0.4,1.4-0.7
				c0.4-0.3,0.8-0.5,1-0.8L615.7,97.5L615.7,97.5z"/>
			<path d="M498.6,138.1c0.9,0,1.8,0.1,2.7,0.3c0.9,0.2,1.6,0.4,2.3,0.7v4.1h-1.3V140c-0.7-0.2-1.3-0.3-1.8-0.4
				c-0.6-0.1-1.1-0.1-1.8-0.1c-1.1,0-2,0.2-2.7,0.6c-0.7,0.4-1.4,1-1.8,1.7c-0.5,0.7-0.8,1.6-1,2.6s-0.3,2.1-0.3,3.3
				c0,1,0.1,2,0.3,2.9c0.2,0.9,0.5,1.7,0.9,2.4s1,1.2,1.7,1.6c0.7,0.4,1.6,0.6,2.7,0.6c1,0,1.9-0.1,2.7-0.3c0.8-0.2,1.7-0.5,2.7-0.9
				l0.4,1.1c-0.7,0.4-1.6,0.7-2.6,1s-2.1,0.4-3.2,0.4c-1.3,0-2.5-0.2-3.4-0.7c-0.9-0.4-1.7-1-2.2-1.8c-0.6-0.8-1-1.7-1.2-2.8
				s-0.4-2.2-0.4-3.5c0-0.9,0.1-1.9,0.3-3c0.2-1.1,0.6-2.1,1.1-3.1s1.3-1.8,2.3-2.4C495.8,138.4,497,138.1,498.6,138.1z"/>
			<path d="M519,154.7h2.9l0.1,0.9c-0.4,0.2-0.9,0.3-1.5,0.4s-1,0.1-1.4,0.1c-0.6,0-1-0.1-1.2-0.3c-0.3-0.2-0.4-0.7-0.4-1.4V154
				c-0.7,0.6-1.4,1-2.1,1.3c-0.6,0.3-1.2,0.5-1.8,0.7c-0.5,0.1-1,0.2-1.4,0.3c-0.4,0-0.7,0-1,0c-1,0-1.8-0.2-2.4-0.5
				s-1.1-0.7-1.5-1.2s-0.6-1-0.8-1.6c-0.1-0.6-0.2-1.1-0.2-1.6c0-0.8,0.2-1.5,0.5-2.2c0.3-0.6,0.7-1.2,1.3-1.6c0.5-0.4,1.2-0.7,2-1
				s1.6-0.4,2.4-0.4l5-0.3v-1.6c0-0.9-0.1-1.6-0.2-2.2c-0.1-0.6-0.4-1.1-0.7-1.5s-0.7-0.6-1.3-0.8c-0.5-0.2-1.2-0.3-2-0.3
				c-0.9,0-1.8,0.1-2.7,0.3c-0.9,0.2-1.9,0.5-2.8,0.8l-0.4-1.2c1-0.4,2.1-0.8,3.1-1c1.1-0.2,2.1-0.3,3.1-0.3c1.7,0,3,0.4,4,1.3
				c0.9,0.9,1.4,2.3,1.4,4.4L519,154.7L519,154.7z M512.3,147.5c-1.4,0.1-2.5,0.4-3.2,1.1c-0.7,0.7-1.1,1.5-1.1,2.6
				c0,2.5,1.3,3.7,3.9,3.7c1.8,0,3.7-0.8,5.7-2.5v-5.2L512.3,147.5z"/>
			<path d="M527.7,140.8c0.3-0.3,0.7-0.6,1.2-0.9c0.5-0.3,1-0.6,1.5-0.9c0.5-0.3,1.1-0.5,1.6-0.7s1.1-0.3,1.5-0.3
				c0.2,0,0.3,0,0.4,0.1c0.1,0.1,0.2,0.3,0.2,0.5s0,0.5-0.1,0.8s-0.2,0.6-0.4,0.8l-5.9,1.2v13.3h3v1.2h-7.2v-1.2h2.8v-15.1h-2.8
				v-1.3h4.2V140.8L527.7,140.8z"/>
			<path d="M534.3,160.5v-1.1h18.1v1.1H534.3z"/>
			<path d="M554.3,139.8v-1.3h3.7v16.3h2.8v1c-0.4,0.2-0.9,0.3-1.4,0.4c-0.5,0.1-0.9,0.1-1.2,0.1c-0.6,0-1-0.1-1.2-0.4
				c-0.3-0.2-0.4-0.7-0.4-1.4v-14.6h-2.3V139.8z M555.9,134.1c0-0.3,0.1-0.6,0.4-0.9c0.2-0.2,0.5-0.4,0.8-0.4s0.6,0.1,0.9,0.4
				c0.2,0.2,0.4,0.5,0.4,0.9c0,0.3-0.1,0.6-0.4,0.8c-0.2,0.2-0.5,0.4-0.9,0.4c-0.3,0-0.6-0.1-0.8-0.4
				C556,134.7,555.9,134.4,555.9,134.1z"/>
			<path d="M575.2,154.3C575.2,154.3,575.2,154.2,575.2,154.3c-0.8,0.5-1.7,1-2.6,1.4c-1,0.4-2,0.6-3,0.6c-1.2,0-2.2-0.2-3-0.7
				s-1.5-1.1-1.9-1.9c-0.5-0.8-0.8-1.7-1.1-2.8c-0.2-1.1-0.3-2.2-0.3-3.4c0-1.3,0.1-2.6,0.4-3.7s0.6-2.2,1.2-3
				c0.5-0.9,1.2-1.5,2.1-2c0.9-0.5,1.9-0.7,3.2-0.7c0.7,0,1.6,0.1,2.5,0.3s1.8,0.6,2.7,1.1v-7.9H572v-1.2h4.7v24.4h3v1.2h-4.6
				L575.2,154.3L575.2,154.3z M575.2,141c-0.3-0.2-0.6-0.3-1-0.5s-0.8-0.3-1.2-0.5c-0.5-0.1-0.9-0.3-1.4-0.4c-0.5-0.1-1-0.1-1.4-0.1
				c-0.7,0-1.4,0.1-2.1,0.4c-0.6,0.3-1.2,0.7-1.7,1.4c-0.5,0.6-0.8,1.5-1.1,2.5s-0.4,2.3-0.4,3.9c0,1.4,0.1,2.5,0.4,3.4
				c0.2,0.9,0.6,1.7,1,2.3s1,1,1.6,1.2s1.3,0.4,2.1,0.4c0.4,0,0.9-0.1,1.4-0.2c0.5-0.1,1-0.3,1.5-0.5s0.9-0.4,1.4-0.7
				c0.4-0.3,0.8-0.5,1-0.8L575.2,141L575.2,141z"/>
		</g>
		<g>
			<path d="M676.9,116.8h-23.8c-6.3,0-11.5-5.2-11.5-11.5V93.4c0-6.3,5.2-11.5,11.5-11.5h23.8c6.3,0,11.5,5.2,11.5,11.5v11.9
				C688.4,111.6,683.2,116.8,676.9,116.8z"/>
			<g>
				<path class="st1" d="M650.7,107.7v-2.2h1.6V94.3h-1.6v-2.2h12.7v4.6h-2.3v-2.4h-5.6v4.4l5.2-0.2v2.2l-5.2-0.1v4.9h2.1v2.2
					C657.6,107.7,650.7,107.7,650.7,107.7z"/>
				<path class="st1" d="M673.7,98.3l4.9,7.3h1.3v2.2h-6.3v-2.2h1.3l-3.6-5.4l-1.7,1.6v3.8h1.4v2.1h-6v-2.1h1.6V94.3H665v-2.1h6.2
					v2.1h-1.5V99l5.1-4.7h-1.3v-2.1h6v2.1h-1.4L673.7,98.3z"/>
			</g>
		</g>
		<g>
			<path d="M634.4,161.1h-23.8c-6.3,0-11.5-5.2-11.5-11.5v-11.9c0-6.3,5.2-11.5,11.5-11.5h23.8c6.3,0,11.5,5.2,11.5,11.5v11.9
				C645.9,155.9,640.7,161.1,634.4,161.1z"/>
			<g>
				<path class="st1" d="M608.1,152.1v-2.2h1.6v-11.3h-1.6v-2.2h12.7v4.6h-2.3v-2.4h-5.6v4.4l5.2-0.2v2.2l-5.2-0.1v4.9h2.1v2.2h-6.9
					V152.1z"/>
				<path class="st1" d="M631.2,142.6l4.9,7.3h1.3v2.2h-6.3v-2.2h1.3l-3.6-5.4l-1.7,1.6v3.8h1.4v2.1h-6.1v-2h1.6v-11.3h-1.6v-2.1
					h6.2v2.1h-1.5v4.7l5.1-4.7h-1.3v-2.1h6v2.1h-1.4L631.2,142.6z"/>
			</g>
		</g>
		<g>
			<g>
				<line class="st3" x1="470.1" y1="100.8" x2="223.2" y2="100.8"/>
				<g>
					<circle cx="469.8" cy="100.8" r="5.6"/>
				</g>
				<g>
					<polygon points="229.2,92.1 196.6,100.8 229.2,109.6 					"/>
				</g>
			</g>
		</g>
	</g>
	<g>
		
			<linearGradient id="SVGID_3_" gradientUnits="userSpaceOnUse" x1="479" y1="120.28" x2="821.3" y2="120.28" gradientTransform="matrix(1 0 0 -1 0 495.28)">
			<stop  offset="0" style="stop-color:#F4F414"/>
			<stop  offset="1" style="stop-color:#FFFFA7"/>
		</linearGradient>
		<path class="st4" d="M809.3,476.3H491c-6.6,0-12-5.4-12-12V285.7c0-6.6,5.4-12,12-12h318.3c6.6,0,12,5.4,12,12v178.5
			C821.3,470.9,815.9,476.3,809.3,476.3z"/>
		<g>
			<path d="M531.7,297.4c1.1,0,2,0.2,2.7,0.6s1.3,1,1.7,1.8c0.4-0.4,0.9-0.7,1.4-1s1.1-0.5,1.6-0.7c0.6-0.2,1.1-0.4,1.6-0.5
				s1.1-0.2,1.5-0.2c1.2,0,2.1,0.2,2.9,0.5c0.7,0.3,1.3,0.8,1.7,1.4s0.7,1.2,0.8,2c0.1,0.7,0.2,1.5,0.2,2.4v8.5h2.4v3
				c-0.6,0.3-1.3,0.5-2,0.6s-1.3,0.2-1.9,0.2c-0.8,0-1.5-0.1-2-0.3c-0.5-0.2-0.8-0.5-1.1-0.8c-0.2-0.4-0.4-0.8-0.4-1.4
				s-0.1-1.2-0.1-1.9v-7c0-1.1-0.2-1.8-0.5-2.3c-0.3-0.4-1-0.7-1.9-0.7c-0.6,0-1.2,0.1-1.9,0.3c-0.7,0.2-1.4,0.5-1.9,0.9
				c0.1,0.4,0.1,0.7,0.1,1.1s0,0.7,0,1v10.8h-5v-11.5c0-0.9-0.2-1.6-0.6-2c-0.4-0.4-1-0.6-1.7-0.6c-0.6,0-1.3,0.1-1.9,0.3
				c-0.7,0.2-1.3,0.5-1.9,1v12.8h-5v-14.4H518v-3.4h7.4v1.6l0.1,0.1c1-0.7,2-1.2,3.1-1.6C529.8,297.6,530.8,297.4,531.7,297.4z"/>
			<path d="M568.5,312.2h2.7l0.3,2.7c-0.9,0.4-1.7,0.6-2.6,0.8c-0.8,0.1-1.6,0.2-2.1,0.2c-0.8,0-1.4-0.1-1.9-0.4s-0.8-0.9-0.8-1.9
				l0,0l0,0c-0.6,0.6-1.2,1-1.8,1.4c-0.6,0.3-1.2,0.6-1.7,0.7s-1,0.2-1.4,0.3c-0.4,0-0.8,0.1-1,0.1c-1.1,0-2-0.2-2.7-0.5
				s-1.3-0.8-1.7-1.3s-0.7-1.1-0.8-1.7c-0.2-0.6-0.2-1.2-0.2-1.7c0-0.7,0.1-1.3,0.4-1.9c0.3-0.6,0.7-1.2,1.2-1.6
				c0.5-0.5,1.2-0.9,2-1.2s1.7-0.5,2.7-0.6l5-0.3v-0.9c0-1-0.2-1.8-0.7-2.4c-0.4-0.5-1.3-0.8-2.6-0.8c-0.9,0-1.8,0.1-2.8,0.3
				c-1,0.2-1.9,0.4-2.7,0.7c-0.1-0.5-0.3-1-0.4-1.5c-0.1-0.5-0.3-1-0.4-1.6c1-0.5,2.2-0.8,3.6-1.1c1.4-0.2,2.7-0.4,3.9-0.4
				c1,0,2,0.1,2.8,0.3s1.6,0.5,2.1,1c0.6,0.5,1,1.1,1.3,1.9s0.5,1.7,0.5,2.9v8.5H568.5z M560.3,307.8c-0.9,0.1-1.5,0.4-1.9,0.8
				s-0.6,1-0.6,1.6c0,0.8,0.2,1.5,0.6,1.9s1,0.6,1.9,0.6c0.6,0,1.1-0.1,1.8-0.4c0.6-0.3,1.2-0.6,1.6-1.1v-3.6L560.3,307.8z"/>
			<path d="M586.1,297.4c1.2,0,2.2,0.2,3,0.6c0.7,0.4,1.3,0.9,1.7,1.5s0.7,1.3,0.8,2s0.2,1.4,0.2,2.1v8.6h2.5v3
				c-0.6,0.3-1.3,0.5-2,0.6s-1.4,0.2-2,0.2c-0.9,0-1.6-0.2-2.1-0.5s-0.8-0.7-1.1-1.2c-0.2-0.4-0.3-0.9-0.4-1.3c0-0.4,0-0.7,0-0.9
				v-7.6c0-1.1-0.2-1.9-0.5-2.4c-0.4-0.5-1.1-0.7-2.1-0.7c-0.6,0-1.3,0.1-2,0.4s-1.4,0.6-1.9,1v12.8h-5v-14.4h-2.4v-3.3h7.4v1.6h0.1
				c0,0,0,0,0.1,0c1-0.7,2-1.2,3-1.5C584.2,297.5,585.2,297.4,586.1,297.4z"/>
			<path d="M604.1,316c-1.1,0-1.9-0.1-2.6-0.4c-0.7-0.3-1.3-0.7-1.7-1.2s-0.7-1.1-0.9-1.8c-0.2-0.7-0.3-1.5-0.3-2.3v-9h-2.4v-3.4
				h7.5v11.3c0,0.9,0.1,1.6,0.4,2.1c0.3,0.5,0.9,0.7,1.9,0.7c0.5,0,1.1-0.1,1.8-0.4s1.4-0.7,2.1-1.3v-9.1h-2.1v-3.4h7.1v14.3h2.4v3
				c-0.8,0.3-1.6,0.5-2.3,0.6s-1.3,0.2-1.7,0.2c-1.1,0-1.9-0.2-2.3-0.6c-0.5-0.4-0.8-1-0.9-1.8c-1,0.9-2,1.6-3.1,1.9
				S605,316,604.1,316z"/>
			<path d="M619.5,312.2h2.4v-11.1h-2.5v-2.7l2.6-0.7v-2.3c0-0.8,0.1-1.6,0.3-2.4s0.6-1.4,1.1-1.9s1.2-1,2-1.3
				c0.9-0.3,1.9-0.5,3.2-0.5c0.6,0,1.4,0,2.3,0.1c0.9,0.1,1.8,0.2,2.6,0.5l-0.7,3.4c-0.5-0.1-1-0.2-1.6-0.2c-0.5,0-1-0.1-1.4-0.1
				c-0.9,0-1.7,0.2-2.2,0.5c-0.5,0.4-0.8,1-0.8,1.9v2.3h5.1v3.3h-5.1v11.1h2.9v3.3h-10.1L619.5,312.2L619.5,312.2z"/>
			<path d="M650.7,312.2h2.7l0.3,2.7c-0.9,0.4-1.7,0.6-2.6,0.8c-0.8,0.1-1.6,0.2-2.1,0.2c-0.8,0-1.4-0.1-1.9-0.4s-0.8-0.9-0.8-1.9
				l0,0l0,0c-0.6,0.6-1.2,1-1.8,1.4c-0.6,0.3-1.2,0.6-1.7,0.7s-1,0.2-1.4,0.3c-0.4,0-0.8,0.1-1,0.1c-1.1,0-2-0.2-2.7-0.5
				s-1.3-0.8-1.7-1.3s-0.7-1.1-0.8-1.7c-0.2-0.6-0.2-1.2-0.2-1.7c0-0.7,0.1-1.3,0.4-1.9c0.3-0.6,0.7-1.2,1.2-1.6
				c0.5-0.5,1.2-0.9,2-1.2s1.7-0.5,2.7-0.6l5-0.3v-0.9c0-1-0.2-1.8-0.7-2.4c-0.4-0.5-1.3-0.8-2.6-0.8c-0.9,0-1.8,0.1-2.8,0.3
				c-1,0.2-1.9,0.4-2.7,0.7c-0.1-0.5-0.3-1-0.4-1.5c-0.1-0.5-0.3-1-0.4-1.6c1-0.5,2.2-0.8,3.6-1.1c1.4-0.2,2.7-0.4,3.9-0.4
				c1,0,2,0.1,2.8,0.3s1.6,0.5,2.1,1c0.6,0.5,1,1.1,1.3,1.9s0.5,1.7,0.5,2.9v8.5H650.7z M642.5,307.8c-0.9,0.1-1.5,0.4-1.9,0.8
				s-0.6,1-0.6,1.6c0,0.8,0.2,1.5,0.6,1.9s1,0.6,1.9,0.6c0.6,0,1.1-0.1,1.8-0.4c0.6-0.3,1.2-0.6,1.6-1.1v-3.6L642.5,307.8z"/>
			<path d="M664.5,297.4c1,0,2,0.1,2.9,0.2c1,0.1,1.9,0.4,2.7,0.7v5.4h-3.4v-2.4c-0.7-0.1-1.3-0.2-1.7-0.2c-1.5,0-2.6,0.5-3.4,1.4
				c-0.7,1-1.1,2.3-1.1,4.2c0,2,0.4,3.4,1.2,4.2c0.8,0.8,1.9,1.2,3.3,1.2c0.8,0,1.7-0.1,2.5-0.3c0.8-0.2,1.6-0.4,2.4-0.7l0.9,3.2
				c-0.8,0.4-1.8,0.7-3,1s-2.4,0.4-3.6,0.4c-1.7,0-3.1-0.2-4.3-0.7c-1.1-0.5-2-1.1-2.7-1.9s-1.1-1.8-1.4-2.9
				c-0.3-1.1-0.4-2.3-0.4-3.5c0-1,0.1-2.1,0.4-3.2c0.2-1.1,0.7-2.1,1.3-3c0.7-0.9,1.6-1.7,2.7-2.3
				C661.1,297.7,662.6,297.4,664.5,297.4z"/>
			<path d="M680.1,292.9v4.9h5.1v3.4H680v8c0,1,0.2,1.7,0.5,2.2c0.3,0.4,1,0.7,2,0.7c0.4,0,0.8,0,1.4-0.1c0.5-0.1,1.1-0.2,1.8-0.3
				l0.7,3.3c-0.8,0.3-1.6,0.6-2.5,0.8s-1.8,0.3-2.5,0.3c-1.3,0-2.3-0.1-3.1-0.4s-1.4-0.7-1.9-1.1c-0.5-0.5-0.8-1-0.9-1.7
				c-0.2-0.6-0.3-1.3-0.3-2v-9.5h-2.5v-2.8l2.8-0.8l1.3-4.3L680.1,292.9z"/>
			<path d="M696,316c-1.1,0-1.9-0.1-2.6-0.4c-0.7-0.3-1.3-0.7-1.7-1.2s-0.7-1.1-0.9-1.8c-0.2-0.7-0.3-1.5-0.3-2.3v-9h-2.4v-3.4h7.5
				v11.3c0,0.9,0.1,1.6,0.4,2.1c0.3,0.5,0.9,0.7,1.9,0.7c0.5,0,1.1-0.1,1.8-0.4s1.4-0.7,2.1-1.3v-9.1h-2.1v-3.4h7.1v14.3h2.4v3
				c-0.8,0.3-1.6,0.5-2.3,0.6s-1.3,0.2-1.7,0.2c-1.1,0-1.9-0.2-2.3-0.6c-0.5-0.4-0.8-1-0.9-1.8c-1,0.9-2,1.6-3.1,1.9
				S696.9,316,696,316z"/>
			<path d="M718.9,300.4c0.4-0.3,0.8-0.7,1.4-1c0.5-0.4,1.1-0.7,1.6-1c0.6-0.3,1.2-0.5,1.8-0.7s1.2-0.3,1.8-0.3
				c0.4,0,0.7,0.1,0.9,0.3c0.2,0.2,0.3,0.6,0.3,1.2c0,0.3,0,0.6-0.1,1s-0.2,0.7-0.3,1.1s-0.3,0.8-0.5,1.1c-0.2,0.4-0.4,0.7-0.7,0.9
				l-6.4-0.4v9.6h2.5v3.3h-9.8v-3.3h2.3v-11.1h-2.2v-3.4h7.2v2.6L718.9,300.4z"/>
			<path d="M736.9,297.4c1.7,0,3.1,0.3,4.1,0.9s1.8,1.3,2.4,2.1s0.9,1.8,1.1,2.8c0.2,1,0.3,2,0.3,2.9v1.8h-11.4
				c0,1.5,0.3,2.6,0.9,3.3s1.8,1.1,3.5,1.1c0.9,0,1.9-0.1,2.8-0.3c0.9-0.2,1.8-0.5,2.7-0.8l1.1,3c-1.2,0.6-2.4,1.1-3.6,1.3
				s-2.5,0.4-3.7,0.4c-1.8,0-3.2-0.3-4.3-0.8s-2-1.2-2.6-2.1s-1.1-1.8-1.3-2.9s-0.4-2.2-0.4-3.4c0-1,0.1-2,0.4-3.1s0.7-2.1,1.4-3
				s1.5-1.7,2.7-2.3C733.8,297.7,735.2,297.4,736.9,297.4z M736.9,300.9c-0.6,0-1.1,0.1-1.5,0.3s-0.8,0.5-1.1,0.9s-0.5,0.8-0.7,1.2
				c-0.1,0.5-0.2,0.9-0.3,1.4h6.7c0-0.5-0.1-1-0.2-1.5s-0.3-0.9-0.5-1.2c-0.2-0.3-0.6-0.6-1-0.8C738,301,737.5,300.9,736.9,300.9z"
				/>
			<path d="M754.8,300.4c0.4-0.3,0.8-0.7,1.4-1c0.5-0.4,1.1-0.7,1.6-1c0.6-0.3,1.2-0.5,1.8-0.7s1.2-0.3,1.8-0.3
				c0.4,0,0.7,0.1,0.9,0.3c0.2,0.2,0.3,0.6,0.3,1.2c0,0.3,0,0.6-0.1,1s-0.2,0.7-0.3,1.1s-0.3,0.8-0.5,1.1c-0.2,0.4-0.4,0.7-0.7,0.9
				l-6.4-0.4v9.6h2.5v3.3h-9.8v-3.3h2.3v-11.1h-2.2v-3.4h7.2v2.6L754.8,300.4z"/>
			<path d="M767.3,309.8l0.1,2.1c0.4,0.2,1,0.3,1.6,0.5c0.7,0.1,1.3,0.2,1.8,0.2c0.9,0,1.7-0.2,2.4-0.5s1-0.8,1-1.4
				c0-0.4-0.1-0.7-0.3-0.9c-0.2-0.3-0.4-0.5-0.7-0.7s-0.6-0.3-0.9-0.5c-0.4-0.1-0.7-0.2-1.1-0.3c-0.9-0.2-1.7-0.5-2.6-0.8
				c-0.9-0.3-1.6-0.6-2.3-1s-1.2-0.9-1.7-1.4c-0.4-0.6-0.6-1.3-0.6-2.2c0-1.9,0.7-3.3,2.1-4.2s3.2-1.3,5.6-1.3
				c1.1,0,2.2,0.1,3.4,0.3c1.1,0.2,2.2,0.6,3.1,1.1c0,0.7,0,1.5,0,2.2s0,1.5,0,2.3h-3.5v-2c-0.4-0.1-0.8-0.2-1.2-0.3
				c-0.5-0.1-0.9-0.1-1.3-0.1c-0.8,0-1.5,0.2-2,0.5s-0.8,0.8-0.8,1.4c0,0.3,0.1,0.5,0.3,0.7s0.4,0.4,0.7,0.5s0.6,0.3,1,0.4
				s0.7,0.2,1,0.3c0.7,0.2,1.5,0.4,2.4,0.7s1.7,0.6,2.4,1s1.3,1,1.8,1.7s0.7,1.6,0.7,2.8c0,1.7-0.7,3-2.2,3.9s-3.5,1.3-6.1,1.3
				c-0.5,0-1.1,0-1.7-0.1c-0.6,0-1.2-0.1-1.9-0.2c-0.6-0.1-1.3-0.3-1.9-0.4c-0.6-0.2-1.2-0.4-1.8-0.7c0-0.7,0-1.5,0-2.3s0-1.6,0-2.3
				h3.2V309.8z"/>
		</g>
		<g>
			<path d="M519.2,347.8v-1.3h3.7v16.3h2.8v1c-0.4,0.2-0.9,0.3-1.4,0.4s-0.9,0.1-1.2,0.1c-0.6,0-1-0.1-1.2-0.4
				c-0.3-0.2-0.4-0.7-0.4-1.4v-14.6h-2.3V347.8z M520.8,342.1c0-0.3,0.1-0.6,0.4-0.9c0.2-0.2,0.5-0.4,0.8-0.4s0.6,0.1,0.9,0.4
				c0.2,0.2,0.4,0.5,0.4,0.9c0,0.3-0.1,0.6-0.4,0.8c-0.2,0.2-0.5,0.4-0.9,0.4c-0.3,0-0.6-0.1-0.8-0.4
				C520.9,342.7,520.8,342.4,520.8,342.1z"/>
			<path d="M540.2,362.3C540.1,362.3,540.1,362.3,540.2,362.3c-0.8,0.5-1.7,1-2.6,1.4c-1,0.4-2,0.6-3,0.6c-1.2,0-2.2-0.2-3-0.7
				s-1.5-1.1-1.9-1.9s-0.8-1.7-1.1-2.8c-0.2-1.1-0.3-2.2-0.3-3.4c0-1.3,0.1-2.6,0.4-3.7c0.2-1.2,0.6-2.2,1.2-3
				c0.5-0.9,1.2-1.5,2.1-2c0.9-0.5,1.9-0.7,3.2-0.7c0.7,0,1.6,0.1,2.5,0.3c0.9,0.2,1.8,0.6,2.7,1.1v-7.9H537v-1.2h4.7v24.4h3v1.2
				h-4.6L540.2,362.3L540.2,362.3z M540.2,349c-0.3-0.2-0.6-0.3-1-0.5s-0.8-0.3-1.2-0.5c-0.5-0.1-0.9-0.3-1.4-0.4s-1-0.1-1.4-0.1
				c-0.7,0-1.4,0.1-2.1,0.4c-0.6,0.3-1.2,0.7-1.7,1.4c-0.5,0.6-0.8,1.5-1.1,2.5s-0.4,2.3-0.4,3.9c0,1.4,0.1,2.5,0.4,3.4
				c0.2,0.9,0.6,1.7,1,2.3c0.4,0.6,1,1,1.6,1.2s1.3,0.4,2.1,0.4c0.4,0,0.9-0.1,1.4-0.2s1-0.3,1.5-0.5s0.9-0.4,1.4-0.7
				c0.4-0.3,0.8-0.5,1-0.8L540.2,349L540.2,349z"/>
			<path d="M533.8,406.3h2.8v0.9c-0.4,0.2-0.9,0.3-1.4,0.4s-0.9,0.1-1.3,0.1c-0.6,0-1-0.1-1.3-0.3c-0.3-0.2-0.4-0.7-0.4-1.4v-10.4
				c0-0.7,0-1.3-0.1-1.9c0-0.6-0.2-1-0.4-1.4s-0.6-0.7-1.1-0.9c-0.5-0.2-1.1-0.3-1.9-0.3c-0.5,0-1,0.1-1.6,0.2s-1.1,0.3-1.7,0.5
				s-1.1,0.4-1.6,0.6s-1,0.5-1.4,0.7v14.6h-1.5v-16.4h-2.8V390h4.3v1.7c0,0,0,0,0.1,0c1.1-0.6,2.2-1.1,3.4-1.5s2.2-0.5,3.1-0.5
				c1.2,0,2.1,0.2,2.7,0.5c0.6,0.3,1.1,0.7,1.4,1.3c0.3,0.5,0.5,1.1,0.6,1.7s0.1,1.2,0.1,1.8L533.8,406.3L533.8,406.3z"/>
			<path d="M551.1,406.3h2.9l0.1,0.9c-0.4,0.2-0.9,0.3-1.5,0.4s-1,0.1-1.4,0.1c-0.6,0-1-0.1-1.2-0.3c-0.3-0.2-0.4-0.7-0.4-1.4v-0.5
				c-0.7,0.6-1.4,1-2.1,1.3c-0.6,0.3-1.2,0.5-1.8,0.7c-0.5,0.1-1,0.2-1.4,0.3c-0.4,0-0.7,0-1,0c-1,0-1.8-0.2-2.4-0.5
				c-0.6-0.3-1.1-0.7-1.5-1.2s-0.6-1-0.8-1.6c-0.1-0.6-0.2-1.1-0.2-1.6c0-0.8,0.2-1.5,0.5-2.2c0.3-0.6,0.7-1.2,1.3-1.6
				c0.5-0.4,1.2-0.7,2-1c0.8-0.2,1.6-0.4,2.4-0.4l5-0.3v-1.6c0-0.9-0.1-1.6-0.2-2.2s-0.4-1.1-0.7-1.5s-0.7-0.6-1.3-0.8
				c-0.5-0.2-1.2-0.3-2-0.3c-0.9,0-1.8,0.1-2.7,0.3c-0.9,0.2-1.9,0.5-2.8,0.8l-0.4-1.2c1-0.4,2.1-0.8,3.1-1c1.1-0.2,2.1-0.3,3.1-0.3
				c1.7,0,3,0.4,4,1.3c0.9,0.9,1.4,2.3,1.4,4.4L551.1,406.3L551.1,406.3z M544.4,399.1c-1.4,0.1-2.5,0.4-3.2,1.1s-1.1,1.5-1.1,2.6
				c0,2.5,1.3,3.7,3.9,3.7c1.8,0,3.7-0.8,5.7-2.5v-5.2L544.4,399.1z"/>
			<path d="M569,407.6v-12.4c0-1.5-0.3-2.6-0.8-3.2c-0.5-0.7-1.4-1-2.7-1c-0.5,0-1,0.1-1.5,0.2s-1.1,0.3-1.6,0.5s-1,0.4-1.5,0.7
				c-0.5,0.2-1,0.5-1.4,0.7v14.5H558v-16.3h-2.8V390h4.3v1.6l0.1,0.1c1.1-0.6,2.2-1.1,3.2-1.5c1.1-0.4,2.1-0.5,3-0.5
				c1.1,0,2,0.2,2.6,0.5c0.7,0.4,1.2,0.9,1.6,1.6c1.1-0.7,2.3-1.2,3.4-1.6c1.1-0.4,2.2-0.6,3.2-0.6c1.2,0,2.1,0.2,2.8,0.5
				s1.2,0.8,1.5,1.3s0.5,1.1,0.6,1.7s0.1,1.2,0.1,1.8v11.3h2.8v0.9c-0.4,0.2-0.9,0.3-1.4,0.4s-0.9,0.1-1.2,0.1c-0.6,0-1-0.1-1.2-0.3
				s-0.4-0.7-0.4-1.4v-10.4c0-0.7,0-1.3-0.1-1.9s-0.2-1.1-0.5-1.4c-0.3-0.4-0.6-0.7-1.1-0.9c-0.5-0.2-1.2-0.3-2-0.3
				c-0.4,0-0.9,0.1-1.4,0.2s-1.1,0.3-1.6,0.4c-0.5,0.2-1.1,0.4-1.6,0.6s-1,0.5-1.4,0.7c0.1,0.5,0.1,1,0.1,1.5s0,0.9,0,1.4v11.8
				L569,407.6L569,407.6z"/>
			<path d="M593.7,389.7c1.1,0,2.1,0.2,2.8,0.5c0.8,0.3,1.4,0.8,1.9,1.3s0.8,1.1,1.1,1.8s0.4,1.3,0.5,1.9s0.2,1.2,0.2,1.7
				s0,0.9,0,1.2v1.1h-12.1c0,1,0.1,1.9,0.2,2.8c0.1,0.9,0.4,1.7,0.9,2.3c0.4,0.7,1,1.2,1.7,1.6s1.6,0.6,2.7,0.6c1.1,0,2-0.1,2.9-0.3
				c0.8-0.2,1.7-0.5,2.8-1l0.5,1.1c-1,0.5-2,0.9-2.9,1.2c-0.9,0.3-2,0.4-3.1,0.4c-1.4,0-2.6-0.2-3.6-0.7s-1.7-1.1-2.2-1.9
				s-0.9-1.8-1.1-2.8c-0.2-1.1-0.3-2.2-0.3-3.5c0-0.5,0-1,0.1-1.6s0.2-1.3,0.3-2c0.2-0.7,0.4-1.4,0.7-2c0.3-0.7,0.8-1.3,1.3-1.8
				s1.2-1,1.9-1.3C591.7,389.8,592.6,389.7,593.7,389.7z M593.7,391c-1,0-1.8,0.2-2.5,0.6s-1.2,0.9-1.6,1.5c-0.4,0.6-0.7,1.4-1,2.2
				c-0.2,0.8-0.4,1.6-0.4,2.5h10.5c0-1-0.1-1.9-0.3-2.7c-0.2-0.8-0.4-1.5-0.8-2.1s-0.9-1.1-1.5-1.4C595.5,391.2,594.7,391,593.7,391
				z"/>
			<path d="M526.3,433.1c0.9,0,1.8,0.1,2.7,0.3c0.9,0.2,1.6,0.4,2.3,0.7v4.1H530V435c-0.7-0.2-1.3-0.3-1.8-0.4
				c-0.6-0.1-1.1-0.1-1.8-0.1c-1.1,0-2,0.2-2.7,0.6s-1.4,1-1.8,1.7s-0.8,1.6-1,2.6s-0.3,2.1-0.3,3.3c0,1,0.1,2,0.3,2.9
				s0.5,1.7,0.9,2.4c0.4,0.7,1,1.2,1.7,1.6s1.6,0.6,2.7,0.6c1,0,1.9-0.1,2.7-0.3c0.8-0.2,1.7-0.5,2.7-0.9l0.4,1.1
				c-0.7,0.4-1.6,0.7-2.6,1s-2.1,0.4-3.2,0.4c-1.3,0-2.5-0.2-3.4-0.7c-0.9-0.4-1.7-1-2.2-1.8c-0.6-0.8-1-1.7-1.2-2.8
				c-0.3-1.1-0.4-2.2-0.4-3.5c0-0.9,0.1-1.9,0.3-3s0.6-2.1,1.1-3.1s1.3-1.8,2.3-2.4C523.4,433.4,524.7,433.1,526.3,433.1z"/>
			<path d="M541.5,433.2c1.4,0,2.5,0.3,3.4,0.8s1.6,1.3,2.1,2.1c0.5,0.9,0.9,1.9,1.1,3c0.2,1.1,0.3,2.2,0.3,3.3
				c0,1.1-0.1,2.2-0.3,3.2c-0.2,1.1-0.6,2-1.1,2.9s-1.3,1.6-2.2,2.1s-2.1,0.8-3.6,0.8c-1.4,0-2.5-0.2-3.4-0.7s-1.6-1.2-2.1-2
				s-0.9-1.8-1.1-2.8c-0.2-1.1-0.3-2.2-0.3-3.3s0.1-2.3,0.4-3.4s0.7-2.1,1.2-3c0.6-0.9,1.3-1.6,2.2-2.1
				C539,433.4,540.1,433.2,541.5,433.2z M546.9,442.5c0-0.9-0.1-1.8-0.2-2.7c-0.1-0.9-0.4-1.8-0.8-2.6s-0.9-1.4-1.6-1.9
				c-0.7-0.5-1.6-0.8-2.7-0.8s-2.1,0.2-2.8,0.7s-1.3,1.1-1.7,1.9s-0.7,1.6-0.9,2.6s-0.3,1.9-0.3,2.8c0,1,0.1,1.9,0.2,2.8
				c0.1,0.9,0.4,1.7,0.8,2.4c0.4,0.7,1,1.3,1.7,1.7c0.7,0.4,1.7,0.6,2.9,0.6c1.1,0,2-0.2,2.7-0.7s1.2-1.1,1.6-1.8
				c0.4-0.7,0.7-1.5,0.8-2.4C546.8,444.2,546.9,443.3,546.9,442.5z"/>
			<path d="M564.4,449.5c0-0.1,0-0.3,0-0.5c-0.7,0.6-1.3,1-1.9,1.4c-0.6,0.3-1.2,0.6-1.8,0.8c-0.5,0.2-1,0.3-1.5,0.3
				c-0.4,0-0.8,0.1-1.1,0.1c-1.2,0-2.1-0.2-2.8-0.5s-1.1-0.8-1.4-1.3c-0.3-0.5-0.5-1.1-0.5-1.7s-0.1-1.2-0.1-1.8v-11.5h-2.8v-1.2
				h4.3v12.1c0,0.7,0,1.3,0.1,1.9s0.2,1,0.4,1.4s0.6,0.7,1,0.9c0.5,0.2,1.1,0.3,1.9,0.3c0.4,0,0.8-0.1,1.3-0.2s1-0.3,1.6-0.5
				c0.5-0.2,1.1-0.5,1.6-0.8s1.1-0.7,1.5-1.2v-12.7h-2.7v-1.2c0.7,0,1.4,0,2.1,0c0.7,0,1.4,0,2.1,0l0,0l0,0c0,2.7,0,5.4,0,8.1
				s0,5.4,0,8.1h2.7v0.9c-0.4,0.2-0.9,0.3-1.3,0.4c-0.5,0.1-0.9,0.1-1.2,0.1c-0.6,0-1-0.1-1.3-0.4S564.5,450.2,564.4,449.5z"/>
			<path d="M585.9,449.7h2.8v0.9c-0.4,0.2-0.9,0.3-1.4,0.4s-0.9,0.1-1.3,0.1c-0.6,0-1-0.1-1.3-0.3c-0.3-0.2-0.4-0.7-0.4-1.4V439
				c0-0.7,0-1.3-0.1-1.9c0-0.6-0.2-1-0.4-1.4s-0.6-0.7-1.1-0.9c-0.5-0.2-1.1-0.3-1.9-0.3c-0.5,0-1,0.1-1.6,0.2s-1.1,0.3-1.7,0.5
				s-1.1,0.4-1.6,0.6s-1,0.5-1.4,0.7v14.6H573v-16.4h-2.8v-1.3h4.3v1.7c0,0,0,0,0.1,0c1.1-0.6,2.2-1.1,3.4-1.5s2.2-0.5,3.1-0.5
				c1.2,0,2.1,0.2,2.7,0.5c0.6,0.3,1.1,0.7,1.4,1.3c0.3,0.5,0.5,1.1,0.6,1.7s0.1,1.2,0.1,1.8L585.9,449.7L585.9,449.7z"/>
			<path d="M594.2,446.9c0,0.8,0.2,1.6,0.5,2.1c0.3,0.6,1,0.9,2.1,0.9c0.9,0,2.1-0.2,3.4-0.7l0.3,1.1c-0.6,0.3-1.2,0.5-1.9,0.7
				s-1.4,0.3-2,0.3s-1.1-0.1-1.5-0.2c-0.5-0.1-0.9-0.3-1.2-0.6s-0.6-0.7-0.9-1.2s-0.3-1.1-0.3-1.8v-12.7h-2.5V434l2.6-0.6l0.6-3.5
				l1-0.2v3.8h5.3v1.3h-5.3v12.1H594.2z"/>
			<path d="M606.5,435.8c0.3-0.3,0.7-0.6,1.2-0.9s1-0.6,1.5-0.9s1.1-0.5,1.6-0.7c0.6-0.2,1.1-0.3,1.5-0.3c0.2,0,0.3,0,0.4,0.1
				c0.1,0.1,0.2,0.3,0.2,0.5s0,0.5-0.1,0.8s-0.2,0.6-0.4,0.8l-5.9,1.2v13.3h3v1.2h-7.2v-1.2h2.8v-15.1h-2.8v-1.3h4.2V435.8
				L606.5,435.8z"/>
			<path d="M625.2,445.1c-1.1,3.4-2.2,6.8-3.4,10.2c-0.4,1.2-0.9,2.1-1.5,2.7s-1.4,0.9-2.5,0.9c-0.3,0-0.7,0-1.3-0.1
				s-1.4-0.2-2.4-0.5l0.3-1.2c0.7,0.1,1.2,0.2,1.7,0.3c0.5,0.1,0.9,0.1,1.3,0.1c0.3,0,0.6,0,0.9-0.1c0.3-0.1,0.5-0.2,0.8-0.4
				c0.2-0.2,0.5-0.4,0.7-0.8c0.2-0.3,0.4-0.8,0.6-1.4l1.3-3.8H621l-5.4-16.3h-1.8v-1.3h3l4,12.3l1.3,4.1h0.2l1.5-4.4
				c0.3-0.9,0.6-1.9,0.9-2.9c0.3-1,0.6-2,0.9-2.9c0.3-0.9,0.6-1.8,0.9-2.7c0.3-0.8,0.5-1.6,0.7-2.2h-2.5v-1.3h5.8v1.3h-1.9
				C627.4,438.3,626.3,441.7,625.2,445.1z"/>
		</g>
		<g>
			<path d="M595.4,368.3h-23.8c-6.3,0-11.5-5.2-11.5-11.5v-11.9c0-6.3,5.2-11.5,11.5-11.5h23.8c6.3,0,11.5,5.2,11.5,11.5v11.9
				C606.9,363.1,601.7,368.3,595.4,368.3z"/>
			<g>
				<path class="st1" d="M581.9,348.4c0,0.6-0.1,1.1-0.3,1.7s-0.5,1.1-0.9,1.6s-0.9,0.8-1.6,1.1c-0.6,0.3-1.4,0.4-2.3,0.4h-2.9v3.9
					h2v2.2h-6.8v-2.2h1.5v-11.3h-1.5v-2.2h7.4c1.8,0,3.1,0.4,4,1.3S581.9,347,581.9,348.4z M573.9,345.9v5.3h2.1c0.3,0,0.6,0,1-0.1
					s0.6-0.3,0.8-0.5s0.4-0.5,0.5-0.8s0.2-0.7,0.2-1.2c0-0.9-0.2-1.6-0.7-2c-0.4-0.4-1.1-0.6-1.9-0.6L573.9,345.9L573.9,345.9z"/>
				<path class="st1" d="M592.2,349.8l4.9,7.3h1.3v2.2h-6.3v-2.2h1.3l-3.6-5.4l-1.7,1.6v3.8h1.4v2.1h-6.1v-2.1h1.6v-11.3h-1.6v-2.1
					h6.2v2.1h-1.5v4.7l5.1-4.7H592v-2.1h6v2.1h-1.4L592.2,349.8z"/>
			</g>
		</g>
		
			<linearGradient id="SVGID_4_" gradientUnits="userSpaceOnUse" x1="20.9" y1="120.28" x2="405.5" y2="120.28" gradientTransform="matrix(1 0 0 -1 0 495.28)">
			<stop  offset="0" style="stop-color:#F4F414"/>
			<stop  offset="1" style="stop-color:#FFFFA7"/>
		</linearGradient>
		<path class="st5" d="M393.5,476.3H32.9c-6.6,0-12-5.4-12-12V285.7c0-6.6,5.4-12,12-12h360.6c6.6,0,12,5.4,12,12v178.5
			C405.5,470.9,400.1,476.3,393.5,476.3z"/>
		<g>
			<path d="M69.6,297.4c1,0,2,0.1,2.9,0.2c1,0.1,1.9,0.4,2.7,0.7v5.4h-3.4v-2.4c-0.7-0.1-1.3-0.2-1.7-0.2c-1.5,0-2.6,0.5-3.4,1.4
				c-0.7,1-1.1,2.3-1.1,4.2c0,2,0.4,3.4,1.2,4.2c0.8,0.8,1.9,1.2,3.3,1.2c0.8,0,1.7-0.1,2.5-0.3s1.6-0.4,2.4-0.7l0.9,3.2
				c-0.8,0.4-1.8,0.7-3,1s-2.4,0.4-3.6,0.4c-1.7,0-3.1-0.2-4.3-0.7c-1.1-0.5-2-1.1-2.7-1.9s-1.1-1.8-1.4-2.9
				c-0.3-1.1-0.4-2.3-0.4-3.5c0-1,0.1-2.1,0.4-3.2c0.2-1.1,0.7-2.1,1.3-3c0.7-0.9,1.6-1.7,2.7-2.3C66.3,297.7,67.8,297.4,69.6,297.4
				z"/>
			<path d="M94.3,312.2H97l0.3,2.7c-0.9,0.4-1.7,0.6-2.6,0.8c-0.8,0.1-1.6,0.2-2.1,0.2c-0.8,0-1.4-0.1-1.9-0.4s-0.8-0.9-0.8-1.9l0,0
				l0,0c-0.6,0.6-1.2,1-1.8,1.4c-0.6,0.3-1.2,0.6-1.7,0.7s-1,0.2-1.4,0.3c-0.4,0-0.8,0.1-1,0.1c-1.1,0-2-0.2-2.7-0.5
				s-1.3-0.8-1.7-1.3c-0.4-0.5-0.7-1.1-0.8-1.7c-0.2-0.6-0.2-1.2-0.2-1.7c0-0.7,0.1-1.3,0.4-1.9s0.7-1.2,1.2-1.6
				c0.5-0.5,1.2-0.9,2-1.2s1.7-0.5,2.7-0.6l5-0.3v-0.9c0-1-0.2-1.8-0.7-2.4c-0.4-0.5-1.3-0.8-2.6-0.8c-0.9,0-1.8,0.1-2.8,0.3
				c-1,0.2-1.9,0.4-2.7,0.7c-0.1-0.5-0.3-1-0.4-1.5s-0.3-1-0.4-1.6c1-0.5,2.2-0.8,3.6-1.1c1.4-0.2,2.7-0.4,3.9-0.4
				c1,0,2,0.1,2.8,0.3c0.8,0.2,1.6,0.5,2.1,1c0.6,0.5,1,1.1,1.3,1.9s0.5,1.7,0.5,2.9v8.5H94.3z M86.1,307.8
				c-0.9,0.1-1.5,0.4-1.9,0.8s-0.6,1-0.6,1.6c0,0.8,0.2,1.5,0.6,1.9s1,0.6,1.9,0.6c0.6,0,1.1-0.1,1.8-0.4c0.6-0.3,1.2-0.6,1.6-1.1
				v-3.6L86.1,307.8z"/>
			<path d="M106.3,300.4c0.4-0.3,0.8-0.7,1.4-1c0.5-0.4,1.1-0.7,1.6-1c0.6-0.3,1.2-0.5,1.8-0.7c0.6-0.2,1.2-0.3,1.8-0.3
				c0.4,0,0.7,0.1,0.9,0.3c0.2,0.2,0.3,0.6,0.3,1.2c0,0.3,0,0.6-0.1,1s-0.2,0.7-0.3,1.1c-0.1,0.4-0.3,0.8-0.5,1.1
				c-0.2,0.4-0.4,0.7-0.7,0.9l-6.4-0.4v9.6h2.5v3.3h-9.8v-3.3h2.3v-11.1H99v-3.4h7.2v2.6L106.3,300.4z"/>
			<path d="M118.9,309.8l0.1,2.1c0.4,0.2,1,0.3,1.6,0.5c0.7,0.1,1.3,0.2,1.8,0.2c0.9,0,1.7-0.2,2.4-0.5c0.7-0.3,1-0.8,1-1.4
				c0-0.4-0.1-0.7-0.3-0.9c-0.2-0.3-0.4-0.5-0.7-0.7c-0.3-0.2-0.6-0.3-0.9-0.5c-0.4-0.1-0.7-0.2-1.1-0.3c-0.9-0.2-1.7-0.5-2.6-0.8
				s-1.6-0.6-2.3-1s-1.2-0.9-1.7-1.4c-0.4-0.6-0.6-1.3-0.6-2.2c0-1.9,0.7-3.3,2.1-4.2s3.2-1.3,5.6-1.3c1.1,0,2.2,0.1,3.4,0.3
				c1.1,0.2,2.2,0.6,3.1,1.1c0,0.7,0,1.5,0,2.2s0,1.5,0,2.3h-3.5v-2c-0.4-0.1-0.8-0.2-1.3-0.3s-0.9-0.1-1.3-0.1
				c-0.8,0-1.5,0.2-2,0.5s-0.8,0.8-0.8,1.4c0,0.3,0.1,0.5,0.3,0.7c0.2,0.2,0.4,0.4,0.7,0.5s0.6,0.3,1,0.4s0.7,0.2,1,0.3
				c0.7,0.2,1.5,0.4,2.4,0.7c0.9,0.2,1.7,0.6,2.4,1c0.7,0.4,1.3,1,1.8,1.7s0.7,1.6,0.7,2.8c0,1.7-0.7,3-2.2,3.9
				c-1.4,0.9-3.5,1.3-6.1,1.3c-0.5,0-1.1,0-1.7-0.1c-0.6,0-1.2-0.1-1.9-0.2c-0.6-0.1-1.3-0.3-1.9-0.4c-0.6-0.2-1.2-0.4-1.8-0.7
				c0-0.7,0-1.5,0-2.3s0-1.6,0-2.3h3.3V309.8z"/>
		</g>
		<g>
			<path d="M61.1,347.8v-1.3h3.7v16.3h2.8v1c-0.4,0.2-0.9,0.3-1.4,0.4s-0.9,0.1-1.3,0.1c-0.6,0-1-0.1-1.2-0.4
				c-0.3-0.2-0.4-0.7-0.4-1.4v-14.6h-2.2V347.8z M62.7,342.1c0-0.3,0.1-0.6,0.4-0.9c0.2-0.2,0.5-0.4,0.8-0.4c0.3,0,0.6,0.1,0.9,0.4
				c0.2,0.2,0.4,0.5,0.4,0.9c0,0.3-0.1,0.6-0.4,0.8c-0.2,0.2-0.5,0.4-0.9,0.4c-0.3,0-0.6-0.1-0.8-0.4
				C62.8,342.7,62.7,342.4,62.7,342.1z"/>
			<path d="M82,362.3L82,362.3c-0.8,0.5-1.7,1-2.6,1.4c-1,0.4-2,0.6-3,0.6c-1.2,0-2.2-0.2-3-0.7s-1.5-1.1-1.9-1.9
				c-0.5-0.8-0.8-1.7-1.1-2.8c-0.2-1.1-0.3-2.2-0.3-3.4c0-1.3,0.1-2.6,0.4-3.7c0.2-1.2,0.6-2.2,1.2-3c0.5-0.9,1.3-1.5,2.1-2
				s1.9-0.7,3.2-0.7c0.7,0,1.6,0.1,2.5,0.3c0.9,0.2,1.8,0.6,2.7,1.1v-7.9H79v-1.2h4.7v24.4h3v1.2H82V362.3z M82,349
				c-0.3-0.2-0.6-0.3-1-0.5s-0.8-0.3-1.2-0.5c-0.5-0.1-0.9-0.3-1.4-0.4s-1-0.1-1.4-0.1c-0.7,0-1.4,0.1-2.1,0.4
				c-0.6,0.3-1.2,0.7-1.7,1.4c-0.5,0.6-0.8,1.5-1.1,2.5s-0.4,2.3-0.4,3.9c0,1.4,0.1,2.5,0.4,3.4c0.2,0.9,0.6,1.7,1,2.3s1,1,1.6,1.2
				s1.3,0.4,2.1,0.4c0.4,0,0.9-0.1,1.4-0.2s1-0.3,1.5-0.5s0.9-0.4,1.4-0.7c0.4-0.3,0.8-0.5,1-0.8V349H82z"/>
			<path d="M73.8,407.6v-12.4c0-1.5-0.3-2.6-0.8-3.2c-0.5-0.7-1.4-1-2.7-1c-0.5,0-1,0.1-1.5,0.2s-1.1,0.3-1.6,0.5s-1,0.4-1.5,0.7
				c-0.5,0.2-1,0.5-1.4,0.7v14.5h-1.5v-16.3H60V390h4.3v1.6l0.1,0.1c1.1-0.6,2.2-1.1,3.2-1.5c1.1-0.4,2.1-0.5,3-0.5
				c1.1,0,2,0.2,2.6,0.5c0.7,0.4,1.2,0.9,1.6,1.6c1.1-0.7,2.3-1.2,3.4-1.6s2.2-0.6,3.2-0.6c1.2,0,2.1,0.2,2.8,0.5
				c0.7,0.3,1.2,0.8,1.5,1.3s0.5,1.1,0.6,1.7s0.1,1.2,0.1,1.8v11.3h2.8v0.9c-0.4,0.2-0.9,0.3-1.4,0.4s-0.9,0.1-1.2,0.1
				c-0.6,0-1-0.1-1.2-0.3c-0.3-0.2-0.4-0.7-0.4-1.4v-10.4c0-0.7,0-1.3-0.1-1.9s-0.2-1.1-0.5-1.4c-0.3-0.4-0.6-0.7-1.1-0.9
				c-0.5-0.2-1.2-0.3-2-0.3c-0.4,0-0.9,0.1-1.4,0.2s-1.1,0.3-1.6,0.4c-0.5,0.2-1.1,0.4-1.6,0.6s-1,0.5-1.4,0.7
				c0.1,0.5,0.1,1,0.1,1.5s0,0.9,0,1.4v11.8L73.8,407.6L73.8,407.6z"/>
			<path d="M103.7,406.3h2.9l0.1,0.9c-0.4,0.2-0.9,0.3-1.5,0.4s-1,0.1-1.4,0.1c-0.6,0-1-0.1-1.2-0.3c-0.3-0.2-0.4-0.7-0.4-1.4v-0.5
				c-0.7,0.6-1.4,1-2.1,1.3c-0.6,0.3-1.2,0.5-1.8,0.7c-0.5,0.1-1,0.2-1.4,0.3c-0.4,0-0.7,0-1,0c-1,0-1.8-0.2-2.4-0.5
				s-1.1-0.7-1.5-1.2s-0.6-1-0.8-1.6s-0.2-1.1-0.2-1.6c0-0.8,0.2-1.5,0.5-2.2c0.3-0.6,0.7-1.2,1.3-1.6s1.2-0.7,2-1
				c0.8-0.2,1.6-0.4,2.4-0.4l5-0.3v-1.6c0-0.9-0.1-1.6-0.2-2.2s-0.4-1.1-0.7-1.5c-0.3-0.4-0.7-0.6-1.3-0.8c-0.5-0.2-1.2-0.3-2-0.3
				c-0.9,0-1.8,0.1-2.7,0.3c-0.9,0.2-1.9,0.5-2.8,0.8l-0.4-1.2c1-0.4,2.1-0.8,3.1-1c1.1-0.2,2.1-0.3,3.1-0.3c1.7,0,3,0.4,3.9,1.3
				s1.4,2.3,1.4,4.4L103.7,406.3L103.7,406.3z M97,399.1c-1.4,0.1-2.5,0.4-3.2,1.1s-1.1,1.5-1.1,2.6c0,2.5,1.3,3.7,3.9,3.7
				c1.8,0,3.7-0.8,5.7-2.5v-5.2L97,399.1z"/>
			<path d="M123.5,406.3h2.8v0.9c-0.4,0.2-0.9,0.3-1.4,0.4s-0.9,0.1-1.2,0.1c-0.6,0-1-0.1-1.3-0.3c-0.3-0.2-0.4-0.7-0.4-1.4v-10.4
				c0-0.7,0-1.3-0.1-1.9c0-0.6-0.2-1-0.4-1.4c-0.2-0.4-0.6-0.7-1.1-0.9c-0.5-0.2-1.1-0.3-1.9-0.3c-0.5,0-1,0.1-1.6,0.2
				s-1.1,0.3-1.7,0.5s-1.1,0.4-1.6,0.6s-1,0.5-1.4,0.7v14.6h-1.5v-16.4h-2.8V390h4.3v1.7c0,0,0,0,0.1,0c1.1-0.6,2.2-1.1,3.4-1.5
				c1.2-0.4,2.2-0.5,3.1-0.5c1.2,0,2.1,0.2,2.7,0.5s1.1,0.7,1.4,1.3c0.3,0.5,0.5,1.1,0.6,1.7s0.1,1.2,0.1,1.8L123.5,406.3
				L123.5,406.3z"/>
			<path d="M141.5,406c0-0.1,0-0.3,0-0.5c-0.7,0.6-1.3,1-1.9,1.4c-0.6,0.3-1.2,0.6-1.8,0.8c-0.5,0.2-1,0.3-1.5,0.3
				c-0.4,0-0.8,0.1-1.1,0.1c-1.2,0-2.1-0.2-2.8-0.5s-1.1-0.8-1.4-1.3c-0.3-0.5-0.5-1.1-0.5-1.7s-0.1-1.2-0.1-1.8v-11.5h-2.8V390h4.3
				v12.1c0,0.7,0,1.3,0.1,1.9s0.2,1,0.4,1.4s0.6,0.7,1,0.9s1.1,0.3,1.9,0.3c0.4,0,0.8-0.1,1.3-0.2s1-0.3,1.6-0.5
				c0.5-0.2,1.1-0.5,1.6-0.8s1.1-0.7,1.5-1.2v-12.7h-2.7V390c0.7,0,1.4,0,2.1,0c0.7,0,1.4,0,2.1,0l0,0l0,0c0,2.7,0,5.4,0,8.1
				s0,5.4,0,8.1h2.7v0.9c-0.4,0.2-0.9,0.3-1.3,0.4c-0.5,0.1-0.9,0.1-1.2,0.1c-0.6,0-1-0.1-1.3-0.4
				C141.7,407.1,141.6,406.7,141.5,406z"/>
			<path d="M156.5,383c-0.4,0-0.8-0.1-1.2-0.1c-1.3,0-2.3,0.3-2.9,0.8c-0.6,0.5-1,1.5-1,2.8v3.4h5.3v1.3h-5.3v15.1h3.2v1.2h-7.4
				v-1.2h2.7v-15.1h-2.5v-0.9l2.5-0.5v-3.3c0-1.8,0.5-3,1.4-3.8s2.2-1.2,3.7-1.2c1,0,1.9,0.1,2.9,0.3l-0.2,1.2
				C157.4,383.1,156.9,383,156.5,383z"/>
			<path d="M171.7,406.3h2.9l0.1,0.9c-0.4,0.2-0.9,0.3-1.5,0.4s-1,0.1-1.4,0.1c-0.6,0-1-0.1-1.2-0.3c-0.3-0.2-0.4-0.7-0.4-1.4v-0.5
				c-0.7,0.6-1.4,1-2.1,1.3c-0.6,0.3-1.2,0.5-1.8,0.7c-0.5,0.1-1,0.2-1.4,0.3c-0.4,0-0.7,0-1,0c-1,0-1.8-0.2-2.4-0.5
				c-0.6-0.3-1.1-0.7-1.5-1.2s-0.6-1-0.8-1.6s-0.2-1.1-0.2-1.6c0-0.8,0.2-1.5,0.5-2.2c0.3-0.6,0.7-1.2,1.3-1.6s1.2-0.7,2-1
				c0.8-0.2,1.6-0.4,2.4-0.4l5-0.3v-1.6c0-0.9-0.1-1.6-0.2-2.2c-0.1-0.6-0.4-1.1-0.7-1.5s-0.7-0.6-1.3-0.8c-0.5-0.2-1.2-0.3-2-0.3
				c-0.9,0-1.8,0.1-2.7,0.3c-0.9,0.2-1.9,0.5-2.8,0.8l-0.4-1.2c1-0.4,2.1-0.8,3.1-1c1.1-0.2,2.1-0.3,3.1-0.3c1.7,0,3,0.4,3.9,1.3
				s1.4,2.3,1.4,4.4L171.7,406.3L171.7,406.3z M165,399.1c-1.4,0.1-2.5,0.4-3.2,1.1s-1.1,1.5-1.1,2.6c0,2.5,1.3,3.7,3.9,3.7
				c1.8,0,3.7-0.8,5.7-2.5v-5.2L165,399.1z"/>
			<path d="M184,389.6c0.9,0,1.8,0.1,2.7,0.3c0.9,0.2,1.6,0.4,2.3,0.7v4.1h-1.3v-3.2c-0.7-0.2-1.3-0.3-1.8-0.4
				c-0.6-0.1-1.1-0.1-1.8-0.1c-1.1,0-2,0.2-2.7,0.6s-1.4,1-1.8,1.7c-0.5,0.7-0.8,1.6-1,2.6s-0.3,2.1-0.3,3.3c0,1,0.1,2,0.3,2.9
				s0.5,1.7,0.9,2.4c0.4,0.7,1,1.2,1.7,1.6s1.6,0.6,2.7,0.6c1,0,1.9-0.1,2.7-0.3c0.8-0.2,1.7-0.5,2.7-0.9l0.4,1.1
				c-0.7,0.4-1.6,0.7-2.6,1s-2.1,0.4-3.2,0.4c-1.3,0-2.5-0.2-3.4-0.7c-0.9-0.4-1.7-1-2.2-1.8c-0.6-0.8-1-1.7-1.2-2.8
				c-0.3-1.1-0.4-2.2-0.4-3.5c0-0.9,0.1-1.9,0.3-3s0.6-2.1,1.1-3.1s1.3-1.8,2.3-2.4C181.2,390,182.4,389.6,184,389.6z"/>
			<path d="M195.5,403.4c0,0.8,0.2,1.6,0.5,2.1c0.3,0.6,1,0.9,2.1,0.9c0.9,0,2.1-0.2,3.4-0.7l0.3,1.1c-0.6,0.3-1.2,0.5-1.9,0.7
				s-1.4,0.3-2,0.3s-1.1-0.1-1.5-0.2c-0.5-0.1-0.9-0.3-1.2-0.6c-0.4-0.3-0.6-0.7-0.9-1.2c-0.2-0.5-0.3-1.1-0.3-1.8v-12.7h-2.5v-0.8
				l2.6-0.6l0.6-3.5l1-0.2v3.8h5.3v1.3h-5.3v12.1H195.5z"/>
			<path d="M217,406c0-0.1,0-0.3,0-0.5c-0.7,0.6-1.3,1-1.9,1.4c-0.6,0.3-1.2,0.6-1.8,0.8c-0.5,0.2-1,0.3-1.5,0.3
				c-0.4,0-0.8,0.1-1.1,0.1c-1.2,0-2.1-0.2-2.8-0.5s-1.1-0.8-1.4-1.3c-0.3-0.5-0.5-1.1-0.5-1.7s-0.1-1.2-0.1-1.8v-11.5h-2.8V390h4.3
				v12.1c0,0.7,0,1.3,0.1,1.9s0.2,1,0.4,1.4s0.6,0.7,1,0.9s1.1,0.3,1.9,0.3c0.4,0,0.8-0.1,1.3-0.2s1-0.3,1.6-0.5
				c0.5-0.2,1.1-0.5,1.6-0.8s1.1-0.7,1.5-1.2v-12.7h-2.7V390c0.7,0,1.4,0,2.1,0c0.7,0,1.4,0,2.1,0l0,0l0,0c0,2.7,0,5.4,0,8.1
				s0,5.4,0,8.1h2.7v0.9c-0.4,0.2-0.9,0.3-1.3,0.4c-0.5,0.1-0.9,0.1-1.2,0.1c-0.6,0-1-0.1-1.3-0.4C217.2,407.1,217,406.7,217,406z"
				/>
			<path d="M227.3,392.3c0.3-0.3,0.7-0.6,1.2-0.9s1-0.6,1.5-0.9s1.1-0.5,1.6-0.7c0.6-0.2,1.1-0.3,1.5-0.3c0.2,0,0.3,0,0.4,0.1
				c0.1,0.1,0.2,0.3,0.2,0.5s0,0.5-0.1,0.8s-0.2,0.6-0.4,0.8l-5.9,1.2v13.3h3v1.2H223v-1.2h2.8v-15.1H223V390h4.2L227.3,392.3
				L227.3,392.3z"/>
			<path d="M242.5,389.7c1.1,0,2.1,0.2,2.8,0.5c0.8,0.3,1.4,0.8,1.9,1.3s0.8,1.1,1.1,1.8c0.2,0.7,0.4,1.3,0.5,1.9s0.2,1.2,0.2,1.7
				s0,0.9,0,1.2v1.1h-12c0,1,0.1,1.9,0.2,2.8s0.4,1.7,0.9,2.3c0.4,0.7,1,1.2,1.7,1.6s1.6,0.6,2.7,0.6c1.1,0,2-0.1,2.9-0.3
				c0.8-0.2,1.7-0.5,2.8-1l0.5,1.1c-1,0.5-2,0.9-2.9,1.2c-0.9,0.3-2,0.4-3.1,0.4c-1.4,0-2.6-0.2-3.6-0.7c-0.9-0.5-1.7-1.1-2.2-1.9
				s-0.9-1.8-1.1-2.8c-0.2-1.1-0.3-2.2-0.3-3.5c0-0.5,0-1,0.1-1.6s0.2-1.3,0.3-2c0.2-0.7,0.4-1.4,0.7-2c0.3-0.7,0.8-1.3,1.3-1.8
				s1.2-1,1.9-1.3C240.5,389.8,241.4,389.7,242.5,389.7z M242.5,391c-1,0-1.8,0.2-2.5,0.6s-1.2,0.9-1.6,1.5c-0.4,0.6-0.7,1.4-1,2.2
				c-0.2,0.8-0.4,1.6-0.4,2.5h10.5c0-1-0.1-1.9-0.3-2.7c-0.2-0.8-0.4-1.5-0.8-2.1c-0.4-0.6-0.9-1.1-1.5-1.4
				C244.3,391.2,243.5,391,242.5,391z"/>
			<path d="M255.6,392.3c0.3-0.3,0.7-0.6,1.2-0.9s1-0.6,1.5-0.9s1.1-0.5,1.6-0.7c0.6-0.2,1.1-0.3,1.5-0.3c0.2,0,0.3,0,0.4,0.1
				s0.2,0.3,0.2,0.5s0,0.5-0.1,0.8s-0.2,0.6-0.4,0.8l-5.9,1.2v13.3h3v1.2h-7.2v-1.2h2.8v-15.1h-2.8V390h4.2L255.6,392.3L255.6,392.3
				z"/>
			<path d="M262.3,412v-1.1h18.1v1.1H262.3z"/>
			<path d="M282.2,391.3V390h3.7v16.3h2.8v1c-0.4,0.2-0.9,0.3-1.4,0.4s-0.9,0.1-1.3,0.1c-0.6,0-1-0.1-1.2-0.4
				c-0.3-0.2-0.4-0.7-0.4-1.4v-14.6h-2.2V391.3z M283.8,385.6c0-0.3,0.1-0.6,0.4-0.9c0.2-0.2,0.5-0.4,0.8-0.4s0.6,0.1,0.9,0.4
				c0.2,0.2,0.4,0.5,0.4,0.9c0,0.3-0.1,0.6-0.4,0.8c-0.2,0.2-0.5,0.4-0.9,0.4c-0.3,0-0.6-0.1-0.8-0.4
				C284,386.2,283.8,385.9,283.8,385.6z"/>
			<path d="M303.2,405.8L303.2,405.8c-0.8,0.5-1.7,1-2.6,1.4c-1,0.4-2,0.6-3,0.6c-1.2,0-2.2-0.2-3-0.7s-1.5-1.1-1.9-1.9
				c-0.5-0.8-0.8-1.7-1.1-2.8c-0.2-1.1-0.3-2.2-0.3-3.4c0-1.3,0.1-2.6,0.4-3.7c0.2-1.2,0.6-2.2,1.2-3c0.5-0.9,1.3-1.5,2.1-2
				s1.9-0.7,3.2-0.7c0.7,0,1.6,0.1,2.5,0.3c0.9,0.2,1.8,0.6,2.7,1.1v-7.9H300V382h4.7v24.4h3v1.2h-4.6v-1.8H303.2z M303.2,392.5
				c-0.3-0.2-0.6-0.3-1-0.5s-0.8-0.3-1.2-0.5c-0.5-0.1-0.9-0.3-1.4-0.4s-1-0.1-1.4-0.1c-0.7,0-1.4,0.1-2.1,0.4
				c-0.6,0.3-1.2,0.7-1.7,1.4c-0.5,0.6-0.8,1.5-1.1,2.5s-0.4,2.3-0.4,3.9c0,1.4,0.1,2.5,0.4,3.4c0.2,0.9,0.6,1.7,1,2.3s1,1,1.6,1.2
				s1.3,0.4,2.1,0.4c0.4,0,0.9-0.1,1.4-0.2s1-0.3,1.5-0.5s0.9-0.4,1.4-0.7c0.4-0.3,0.8-0.5,1-0.8L303.2,392.5L303.2,392.5z"/>
		</g>
		<g>
			<path d="M137.3,368.3h-23.8c-6.3,0-11.5-5.2-11.5-11.5v-11.9c0-6.3,5.2-11.5,11.5-11.5h23.8c6.3,0,11.5,5.2,11.5,11.5v11.9
				C148.8,363.1,143.6,368.3,137.3,368.3z"/>
			<g>
				<path class="st1" d="M123.8,348.4c0,0.6-0.1,1.1-0.3,1.7c-0.2,0.6-0.5,1.1-0.9,1.6s-0.9,0.8-1.6,1.1c-0.6,0.3-1.4,0.4-2.3,0.4
					h-2.9v3.9h2v2.2H111v-2.2h1.5v-11.3H111v-2.2h7.4c1.8,0,3.1,0.4,4,1.3S123.8,347,123.8,348.4z M115.8,345.9v5.3h2.1
					c0.3,0,0.6,0,1-0.1s0.6-0.3,0.8-0.5c0.2-0.2,0.4-0.5,0.5-0.8s0.2-0.7,0.2-1.2c0-0.9-0.2-1.6-0.7-2c-0.4-0.4-1.1-0.6-1.9-0.6
					L115.8,345.9L115.8,345.9z"/>
				<path class="st1" d="M134.1,349.8l4.9,7.3h1.3v2.2H134v-2.2h1.3l-3.6-5.4l-1.7,1.6v3.8h1.4v2.1h-6.1v-2.1h1.6v-11.3h-1.6v-2.1
					h6.2v2.1H130v4.7l5.1-4.7h-1.3v-2.1h6v2.1h-1.4L134.1,349.8z"/>
			</g>
		</g>
		<g>
			<path d="M360.8,412.8H337c-6.3,0-11.5-5.2-11.5-11.5v-11.9c0-6.3,5.2-11.5,11.5-11.5h23.8c6.3,0,11.5,5.2,11.5,11.5v11.9
				C372.3,407.6,367.1,412.8,360.8,412.8z"/>
			<g>
				<path class="st1" d="M334.5,403.7v-2.2h1.6v-11.3h-1.6V388h12.7v4.6h-2.3v-2.4h-5.6v4.4l5.2-0.2v2.2l-5.2-0.1v4.9h2.1v2.2h-6.9
					V403.7z"/>
				<path class="st1" d="M357.6,394.3l4.9,7.3h1.3v2.2h-6.3v-2.2h1.3l-3.6-5.4l-1.7,1.6v3.8h1.4v2.1h-6.1v-2.1h1.6v-11.3h-1.6v-2.1
					h6.2v2.1h-1.5v4.7l5.1-4.7h-1.3v-2.1h6v2.1H362L357.6,394.3z"/>
			</g>
		</g>
		<g>
			<g>
				<line class="st3" x1="447.4" y1="353.5" x2="478.9" y2="353.5"/>
				<g>
					<polygon points="473,362.2 505.5,353.5 473,344.8 					"/>
				</g>
			</g>
		</g>
		<path class="st3" d="M433,377.2v-5.5c0-10,8.2-18.2,18.2-18.2h25.3"/>
	</g>
	<g>
		<g>
			<path class="st3" d="M622.8,182.2v48c0,10-8.2,18.2-18.2,18.2H332c-10,0-18.2,8.2-18.2,18.2v64.9c0,10-8.2,18.2-18.2,18.2h-59.4
				H200"/>
			<g>
				<circle cx="622.8" cy="182.5" r="5.6"/>
			</g>
			<g>
				<polygon points="205.9,341 173.4,349.7 205.9,358.4 				"/>
			</g>
		</g>
	</g>
	<g>
		<g>
			<path class="st3" d="M433,373.2v6.2c0,10-8.2,18.2-18.2,18.2h-20.3"/>
			<g>
				<circle cx="394.7" cy="397.6" r="5.6"/>
			</g>
		</g>
	</g>
</g>
</svg>
